<svg xmlns="http://www.w3.org/2000/svg" viewBox="0 0 90 180"><defs><style>.cls-1{fill:#1d8500;}.cls-2{fill:#fff;}.cls-3{fill:#3d9e33;}.cls-4{fill:#7d6a4c;}.cls-5{fill:#644d31;}.cls-6{fill:#885630;}.cls-7{fill:#1a1a1a;}.cls-8{fill:#2e2e2e;}.cls-9{fill:#f6e5cc;}</style></defs><title>Tekengebied 1</title><g id="Laag_1" data-name="Laag 1"><g id="MyGet_Logo_Icon" data-name="MyGet Logo Icon"><polygon class="cls-1" points="4.84 169.05 4.84 120.03 51.41 114.82 51.41 174.26 4.84 169.05"/><path class="cls-2" d="M51.25,115v59.08L5,168.91V120.17L51.25,115m.32-.36-.36,0L5,119.86l-.28,0v49.3l.28,0,46.25,5.17.36,0v-59.8Z"/><polygon class="cls-3" points="54.53 114.82 85.16 124.1 85.16 165.06 54.53 174.33 54.53 114.82"/><path class="cls-2" d="M54.69,115,85,124.22v40.72l-30.31,9.17V115m-.32-.43v59.94l.41-.12,30.31-9.17.23-.07V124l-.23-.07-30.31-9.18-.41-.13Z"/></g></g><g id="Laag_2" data-name="Laag 2"><path class="cls-4" d="M62.38,92.8l14.06-5.74.24-5,2.44-5,.54-5.58,2.75-8.41,3.06-7-.24-1.69-.45-1.53.31-1.75L84.55,49l.3-1.44L82.1,44.18,69.87,48.46l.54,1.61L69.27,52l1.06,3.29-1.68,3.29L71,65.67l5,2.68c-.24.07-6.42-.54-6.42-.54l1.45,3-1.68,4.67-2,1L65.75,77l-3.29,3.82-2.44,6,2.06,6h.3ZM10.65,50.58,23.13,52l1.61,7.93L22,66.35l1.51,1.1,2.62,7.25,3,3.38,2.11,1.27L35,82.89l4.31,3.2-1.53,3.29.26,2.44-.51,1.36-.93,2.61-9-2.62.25-1.52L26.6,90,27,88.36l-12.31-9-.93-2.28-2.7-.85L11,56.9,9.9,54.12l.76-3.55Z"/><path class="cls-5" d="M74.07,64.85a3.7,3.7,0,0,0-.69-.1h-.21a.46.46,0,0,0-.42.33,2.3,2.3,0,0,0-.06.28.31.31,0,0,0,0,.1c.61.21,1.23.45,1.85.67h0c0-.57.16-1.16-.51-1.3Zm-.45,6.29.08.1.07.15a10,10,0,0,1,.77,1v0s0,0,0,0c0-.25.15-.89,0-1.1s-.62-.19-.91-.18ZM79,64.6a.11.11,0,1,0,0,.21.11.11,0,0,0,0-.21Zm0-11.53c0,.62,0,1,.7,1s1.2.06,1.23-.74c0-.27.08-.81-.15-1s-.64-.1-.88-.12c-.78-.06-1,.08-.9.89Zm-2.38,5.06c.13-.16.06-.57,0-.75a3,3,0,0,0-.12-.91c-.21-.27-1.25-.18-1.51,0s-.38,1.53,0,1.7c.23.08,1.38.17,1.57,0ZM36.49,89.8s0-.07,0-.09a.54.54,0,0,0,0-.22c0-.1,0-.22,0-.32s0-.15,0-.23-.05-.06-.05-.09v0a1.21,1.21,0,0,0,0-.19,5.27,5.27,0,0,0,0-.56h-.32c-.34,0-.92-.16-1.22,0s-.25.35-.25.61,0,.29,0,.42,0,0,0,.08c0,.38,0,.62.41.74a3,3,0,0,0,1.23,0c0-.07.07-.1.16-.1h0Zm1.22-1.59-.15,0a2.44,2.44,0,0,1-.77.12c0,.08,0,.18,0,.27a1.13,1.13,0,0,1,0,.26.19.19,0,0,1,0,.1c0,.1,0,.2,0,.24v0a.16.16,0,0,0,0,.1.09.09,0,0,0,0,0c0,.08,0,.17,0,.27s0,.1,0,.2h.18a1.28,1.28,0,0,1,.12-.52c.16-.36.42-.71.57-1h-.07Zm-.78,2.11,0,.08v0h-.14c0,.31,0,.62,0,.93,0,.11,0,.22,0,.32s.22.2.36.25l.44-.05h0a6.93,6.93,0,0,0-.34-1.55Zm.13,2a.46.46,0,0,0-.21.11c-.14.19-.07.66-.06.91v.08a1.28,1.28,0,0,0,.46-.34,1.42,1.42,0,0,0,.3-.82c-.13,0-.28,0-.42.06h-.07Zm25.69-2.36c.43,0,.88.09,1.13-.13a1.52,1.52,0,0,0,.17-.85,1.68,1.68,0,0,0-.15-.85A3.27,3.27,0,0,0,62.32,88a.69.69,0,0,0-.2.6c0,.12,0,.27,0,.39a1.94,1.94,0,0,1,0,.36s0,0,0,0,.07.26.11.38,0,0,0,.08h.38c.06,0,.11,0,.13,0ZM80.25,64.8c-.36,0-1.09-.12-1.28.22a2.76,2.76,0,0,0,.09,1.5c.2.25.81.2,1.25.16h.2a.48.48,0,0,1-.09-.19s0-.08,0-.12a1.1,1.1,0,0,1,.14-.53l0-.06h0v0c-.16-.44.36-.84-.29-1ZM15.93,54c.31.17,1.47.18,1.62-.18s-.31-1.55.27-1.64a.64.64,0,0,0-.43-.08c-.44.32-1.26-.21-1.61.22s-.18,1.5.15,1.69ZM74.44,86.07a.6.6,0,0,0-.32-.15c-.36,0-1.06-.1-1.29.19a2.18,2.18,0,0,0,0,1.51.64.64,0,0,0,.49.19,3.53,3.53,0,0,1,.65,0h.13a1.84,1.84,0,0,1,.33,0l.11,0,0-.39c0-.42,0-.84,0-1.26ZM69,83.76s-.07,0-.08,0H69c-.58,0-.46.59-.44,1,0,.64-.06.83.6.85.36,0,1,.13,1.21-.24s0-.85.07-1.28a.24.24,0,0,1,0-.14c-.08-.09-.16-.24-.24-.24H70a3.62,3.62,0,0,1-1.09,0Zm-43.43.06c-.31,0-1.11-.12-1.3.15s-.09,1.11-.07,1.5a.27.27,0,0,0,.1.06.28.28,0,0,0,.08-.12s0,.07,0,.1l0,0,.23.16a3.56,3.56,0,0,1,1.08,0c.56,0,.42-.57.42-1s.09-.85-.49-.9ZM71.7,49.76a3.24,3.24,0,0,0,.44,0,.38.38,0,0,1,.3-.17,1.43,1.43,0,0,0,0-.22.2.2,0,0,1-.06-.12,5.83,5.83,0,0,0-.1-.73h0c-.5.31-.78.09-.63.89a1.53,1.53,0,0,1,0,.37ZM72,51.87c.4,0,.34-.88.34-1.12s.05-.24.05-.36a.35.35,0,0,1-.3-.28h-.48a7.61,7.61,0,0,1-1.12,1.5,2.09,2.09,0,0,1,0,.25c.48.06,1.07,0,1.52,0Zm4.55,13a2.51,2.51,0,0,0-1.58,0c-.38.31,0,1-.26,1.39l.45.29.2.14.06,0,0,0a.2.2,0,0,1,.26,0c.28-.15.7.1.91-.22a2.57,2.57,0,0,0-.07-1.6ZM13.2,73.33c-.32-.28-1.07,0-1.48-.17a8,8,0,0,0-.29,1.44,2.35,2.35,0,0,0,.05.52h0c.5,0,1.93.26,1.85-.52,0-.37.14-1-.15-1.27Zm63.34-.42c.29-.26.13-1.09.13-1.4,0-.52-1.23-.47-1.57-.33-.5.24-.18,1-.38,1.49A.73.73,0,0,0,75,73c.35,0,1.26.17,1.57-.09Zm4-25.2c.28,0,.4-.34.44-.69a1,1,0,0,0,.07.34l0,0c0,.05,0,0,0,0,.14.33.47.28.67.28.43,0,1,.1,1.14-.3a5.79,5.79,0,0,0,0-1.39.49.49,0,0,0-.2-.15,1.9,1.9,0,0,0-.63,0c-.27,0-.78,0-1,.21a1,1,0,0,0-.17.54,2,2,0,0,0-.12-.47c-.29-.5-.94,0-1.21-.37l-.19.08a.41.41,0,0,1-.41.32c0,.23-.05.56-.05.85a1.35,1.35,0,0,0,.11.56c.24.32,1.13.15,1.44.15ZM28.94,92c.42,0,.92.13,1.18-.18a2.51,2.51,0,0,0,.05-1.53c-.14-.24-1.27-.26-1.52-.13-.43.21-.22.86-.33,1.29.05.25.37.43.57.53a0,0,0,0,0,0,0ZM64.63,81.76c-.29,0-.35.25-.35.54s0,.37,0,.5v0c0,.1,0,.17,0,.25,0,.3.1.42.55.45.22,0,.93.13,1.14,0l0,0a2.4,2.4,0,0,0,.2-.82c0-.3-.14-.57-.14-.85v0a2.87,2.87,0,0,0-.42,0h-1Zm-45.3-2.17c-.31,0-1.14-.16-1.41.07s-.14.92-.11,1.27c0,0,0,.08,0,.11a4.26,4.26,0,0,0,.54.41.44.44,0,0,1,.22,0h0c.47-.17,1,.19,1.08-.54,0-.35.19-1.35-.35-1.35Zm57.26-9.87a2.71,2.71,0,0,1,0-.4A5.17,5.17,0,0,0,75.21,69H74.9a2.83,2.83,0,0,0,0,1.58c.13.29.35.32.66.33s.89.12,1.08-.1,0-.63,0-1a.13.13,0,0,1-.07-.11ZM70.32,89.14c0-.3.1-.66,0-.86S69.38,88,69,88l0,0c-.14.15-.25,0-.32-.05h0a0,0,0,0,1,0,0,2.66,2.66,0,0,0-.15,1.58.41.41,0,0,0,.18.29c.11.06.26,0,.43,0a1.83,1.83,0,0,1,.28-.1,2.32,2.32,0,0,1,.59,0l.55-.25a.24.24,0,0,1-.14,0l.13,0a.34.34,0,0,1-.18-.34Zm-6.4-5.27-.06,0h0a7.37,7.37,0,0,0-1.33-.06c-.16.37-.33.74-.5,1.11.08.27,0,.56.31.72a2.68,2.68,0,0,0,1.16,0c.77-.14.34-1,.55-1.6a.56.56,0,0,1-.09-.17l-.09,0ZM21.81,63.61c0-.31,0-.9-.32-.9s-1-.14-1.32,0-.21.59-.22.9-.11.65.12.86.63.19,1,.24a7,7,0,0,1,.52-.57l.05,0h0l.21-.49h0ZM36.36,92.32a2.3,2.3,0,0,0-1.25-.06c-.35.07-.37.18-.4.55s-.13,1,.06,1.2,1,.11,1.28.11h0c.1-.31.38-.41.59-.6a.19.19,0,0,1,0-.07c-.09-.35.09-.93-.27-1.13ZM74.55,70.54c.11-.34.12-1.26-.2-1.46a2.61,2.61,0,0,0-1.49,0c-.22.18-.13.48-.1.74a.43.43,0,0,1,0,0,1.83,1.83,0,0,1,0,.52c.19.16.35.32.54.47l.14.08c.46-.23,1,.16,1.14-.43ZM14.92,73.25c-.82.07-1.25-.16-1.31.84,0,.27-.12.72.1.93a.41.41,0,0,0,.35.08h0a.55.55,0,0,1,.4.06.1.1,0,0,1,0,0c.21-.15.68-.55.74-.15a.21.21,0,0,1,0,.14c.28-.44.48-2-.36-2ZM72.7,49.38c0,.28.19.35.49.4s1.11.08,1.31-.16.08-1,.07-1.22-.1-.56-.52-.57c-.27.09-.56.18-.82.28a2.57,2.57,0,0,1-.56.26,5,5,0,0,1,.11.85.15.15,0,0,1-.08.16ZM26.56,85.94c-.43.15-.26.56-.31.93v.23a1.39,1.39,0,0,1,.21.21l0,0,.58.44s.07,0,.1-.05l.14,0a.7.7,0,0,1,.23.06c.19,0,.38,0,.52-.14s.05-1.08.05-1.36c0-.56-1.21-.45-1.55-.34Zm5.32,6.28a3.3,3.3,0,0,0-1.13,0c-.41.19-.3.88-.27,1.32v.12a16.38,16.38,0,0,0,1.86.49.49.49,0,0,1,0-.12c0-.18,0-.39,0-.59,0-.53.15-1.16-.48-1.26ZM68.47,86.1a5.36,5.36,0,0,0,.44,1.76,2.53,2.53,0,0,1,1-.08c.32,0,.38-.16.44-.44a3.34,3.34,0,0,0,0-1.18c-.2-.44-1.47-.29-1.85-.06Zm-3.62-4.63a2.66,2.66,0,0,1,.75,0,.84.84,0,0,1,.42.19c-.06-.56-.2-1.11-.23-1.67,0-.21.23-1.18,0-1.28-.08,0-.2.1-.36.28-.44.51-1.06,1.56-1.23,1.73.16.46.06.87.69.79Zm19.91-27a1.34,1.34,0,0,0-.31-.17h0v0h-.08l-.17,0h-.25l0,0a1.67,1.67,0,0,1-.63.3,3.42,3.42,0,0,0,0,.86c0,.27,0,.54.21.68a1.6,1.6,0,0,0,.87.06l.43-.06v.28l-.51,0a1.6,1.6,0,0,0-.81.07c-.35.19-.16.62-.15.93,0,.58,0,.7.22.81l.48.17c.26-.65.77-1.19.77-1.93a.59.59,0,0,0,.08-.35c.1-.46.2-.92.32-1.38a1,1,0,0,1-.44-.21ZM72,58.47a4.32,4.32,0,0,1-.88,0,11.32,11.32,0,0,0-.37,1.5,1,1,0,0,1,.36.39c.41,0,1.1.13,1.3-.19a1.77,1.77,0,0,0,0-.69c0-.41.12-1-.46-1Zm-5.84,32v.07s0,0,0-.07v0s0,0,0,0c-.08-.38-.4-.31-.73-.31s-.84-.11-1,.12a1.81,1.81,0,0,0,0,1.49.6.6,0,0,0,.26.33v0c.53-.25,1.12-.52,1.69-.73a.48.48,0,0,1-.17-.39c0-.14,0-.33,0-.48Zm5.87-13a2.68,2.68,0,0,1-1.16-.09,7.17,7.17,0,0,0,0,2.12c0-.51,1.3.09,1.56-.4A3,3,0,0,0,72.48,78c0-.34,0-.52-.45-.48Zm.41-25.17c0-.19-1.78-.43-1.93.26a4.81,4.81,0,0,0,.84,1.48l.4-.13a.17.17,0,0,1,.19.07.58.58,0,0,0,.44-.12c.27-.31,0-1.2.06-1.56Zm4.88,14.61c-.63.17-.12.63-.38,1L77,68a2.55,2.55,0,0,1,.53.18.73.73,0,0,1,.41.56c.27,0,.62.09.79-.14a3,3,0,0,0,0-1.58c-.22-.25-1.1-.21-1.41-.13ZM23,75.74a5.84,5.84,0,0,1-.93,0,4.1,4.1,0,0,0,0,1.06c.08.41.39.37.76.38.53,0,1.14.1,1.19-.6-.18-.34-.45-.64-.62-1a1.93,1.93,0,0,1-.41.12Zm-2.2-4.68a11.65,11.65,0,0,0-.91,1.53c.11.41.41.41.77.41s.94.14,1.14-.2a3.1,3.1,0,0,0,0-1.42c-.2-.42-.66-.11-1-.33ZM27,78.71a.38.38,0,0,1,.11.12c0,.09-.08.17-.2.22s-.44-.1-.65-.13h0c.06,0,0,0,0,0,0,.49,1.16.6,1.5.43s.32-.47.32-.77a.37.37,0,0,1-.32-.41.41.41,0,0,1,0-.15,10.41,10.41,0,0,1-1.62-1.63v0c.1.84,0,1.77.84,2.33Zm45,.83a4.59,4.59,0,0,1-1.17,0V80a6,6,0,0,0,.1,1.4c.53,0,1.4.25,1.51-.42a5.77,5.77,0,0,0,.05-.67c0-.4-.11-.81-.49-.81Zm.08,6.12c.46-.17.34-.51.35-1s.17-.9-.34-.9a2.14,2.14,0,0,1-.91-.08c0,.38.09.76.15,1.2l-.45-.42-.29-.28a.66.66,0,0,1,0,.13c0,.37-.14,1.06.12,1.25a3.38,3.38,0,0,0,1.38,0Zm-.22-10.25c-.27-.1-.58.1-.78-.2a6.24,6.24,0,0,0-.25,2.1c.68-.32,1.56.28,1.6-.69,0-.14,0-.45,0-.71a.84.84,0,0,0,0-.35c-.12-.2-.36-.15-.58-.15ZM18,69.07c-.31.19-.21.73-.2,1.06,0,.86.39.74,1.15.74h0a7.48,7.48,0,0,0,.55-1.76h0a2.67,2.67,0,0,0-1.53,0Zm64.41-8.28h-.26a.58.58,0,0,0,.19,0h-.21a.19.19,0,0,1-.18-.19v0c-.48,0-1,0-1,.51,0,.09,0,.22,0,.36a1.8,1.8,0,0,0,.15.85.41.41,0,0,0,.27.19s.07-.05.14-.05h.59c0-.1-.16-.09-.28-.11.13,0,.27,0,.32.11h.11a13.84,13.84,0,0,0,.69-1.53,3.69,3.69,0,0,1-.47-.07s0,0,0,0ZM34.84,83.74h-.05c-.11.44-.35,1.83.25,1.91a3.79,3.79,0,0,0,1.3,0c.41-.17.11-.43.31-.72a4.87,4.87,0,0,0-1.81-1.17ZM77.16,48.32A1.78,1.78,0,0,1,77.4,48,2.47,2.47,0,0,0,77,48a.58.58,0,0,0-.09.4C77,48.31,77,48.28,77.16,48.32Zm-.1-.69a.05.05,0,0,0,0,0l.61,0h1a3,3,0,0,0,.09-1.22h-.45v-.34a3.37,3.37,0,0,0-.54.22s0,0-.06,0a2.42,2.42,0,0,1-.88.57v.51s0,0,0,0a.62.62,0,0,0,.16.17Zm.5,2.15c.43,0,1.09.16,1.22-.37a4.49,4.49,0,0,0-.08-1c0-.19,0-.32,0-.4l-.5,0-.18.11c.06,0,.07-.08.09-.11h-.67a1.85,1.85,0,0,0-.25.32c-.15,0-.12,0-.24.11,0,.7-.21,1.32.63,1.34ZM66.73,85.6h0a.2.2,0,0,0,.1,0h.29c-.2-.62-.44-1.23-.69-1.85a2.52,2.52,0,0,0-.11.56,2.29,2.29,0,0,0,0,1,.61.61,0,0,0,.33.34Zm.34.34-.32,0-.08,0a.35.35,0,0,0-.22.12c-.21.24-.07.94-.06,1.22a1.56,1.56,0,0,0,0,.25.43.43,0,0,1,.14.19,1.26,1.26,0,0,0,.57.06c.34,0,.79.09,1.07-.13l.11-.11-1-1.61ZM21.85,52.71l-2-.3c-.63-.09-1.37-.17-2-.25a5.87,5.87,0,0,0,0,1.39c0,.58.35.45.88.44.36,0,.78.1.92-.3s-.11-.8.18-1.22c.33.74-.3,1.51.78,1.52.27,0,.83.12,1.05-.05s.17-1,.2-1.22v0h0S21.86,52.7,21.85,52.71ZM12.66,73c.8.08.7-.59.69-1.25s-.65-.58-1.27-.6A9.94,9.94,0,0,0,11.73,73c.32,0,.62,0,.93,0Zm8.23,8.66h0c-.77,0-.8,0-1,.69a.34.34,0,0,0,0,.1v0c.53.39,1.06.79,1.69,1.18,0,0,0,0,0,0A2.19,2.19,0,0,0,21.77,82c-.14-.38-.5-.31-.87-.31Zm2.57-21.31c0-.23,0-.47.05-.72s-.14-.77-.2-1.15h-.85c-.28,0-.35.14-.41.36a5,5,0,0,0,0,1.16c.15.5.9.39,1.41.35ZM63.6,90.14h-.87a.17.17,0,0,1-.14.07h-.27a6.93,6.93,0,0,0,.51,1.67l.35.07c.25-.09.68.17.81-.33v0a3.05,3.05,0,0,0,.06-.6c0-.41-.09-.84-.47-.83Zm8.47-8.43H70.94c.08.64.17,1.28.26,1.94.45-.2,1.09.15,1.25-.44.1-.37.18-1.52-.38-1.51Zm.35-7.86a1.21,1.21,0,0,1,0-.2c0-.13-.05-.22-.21-.21h-.07a1.43,1.43,0,0,0-.93,1s0,0,0,.06l-.09.66c.33,0,1,.09,1.28-.21a4.39,4.39,0,0,1,0-.81,1.68,1.68,0,0,1,.06-.27ZM77.91,69s0,0,0,0c.18.21.83.9.42,1-.11,0-.44-.23-.55-.27a4.83,4.83,0,0,0-.83-.3v0a.69.69,0,0,0,0,.13.17.17,0,0,1,0,.15c0,.38,0,.87.22,1a2.21,2.21,0,0,0,1.48,0c.29-.22.24-1.11.16-1.43s-.45-.34-.86-.33ZM12.24,69a2.37,2.37,0,0,1-.27.61l.09,1.14v.12c.72,0,1.25.17,1.27-.67,0-.33.13-.93-.15-1.15s-.64,0-.95,0Zm12.35,8.42-.08-.06h0c-.4.22-.61,1.56-.21,1.88.16.13.55.06.74.06.45,0,1,.08,1.07-.5a13.51,13.51,0,0,1-1.59-1.43.46.46,0,0,0,.07.07Zm13,8.41,0,0c-.2.12-.47,0-.62.21s-.1.76-.11,1c0,.76.24.63.66.71a.18.18,0,0,1,.12,0,1,1,0,0,0,.28.07H38a1.85,1.85,0,0,0,.35-1,1.58,1.58,0,0,0-.72-1ZM84.55,50.35a.17.17,0,0,1-.11.06h0c-.18,0-.53,0-.68.09s-.12.39-.16.55l-.06.28,0,.14c.37.14,1,.38,1.16.22s.16-.63.18-.77a2.72,2.72,0,0,0,0-.39,1.16,1.16,0,0,1-.12-.44h-.06a.18.18,0,0,1-.12.25ZM34.22,85.63c.28-.38.32-1.37-.17-1.49a.65.65,0,0,1-.21.07l-.33,0a1.93,1.93,0,0,1-.34,0l-.49.66a.47.47,0,0,1-.13.53.43.43,0,0,1-.15.2s0,0,0,0h0s0,0,0,0c.51.13,1.58.26,1.81-.06ZM72.09,56.36a.19.19,0,0,1-.1,0l-.27,0a.38.38,0,0,1-.28.21l0,.08v0a5.87,5.87,0,0,1-.24,1.5c.47,0,1.09.14,1.25-.35s.2-1.52-.33-1.53Zm.34-1c0-.23.11-.81-.06-1a.58.58,0,0,0-.47-.14l-.08,0-.26.08A1.61,1.61,0,0,1,71.73,56v0L72,56h0l.07,0c.25-.09.33-.2.33-.67Zm10.57-5c0-.37-.4-.43-.78-.43-.2,0-.41,0-.55,0-.5,0-.63.52-.56,1a1.25,1.25,0,0,0,.15.46c.56-.54,1.19-.23,1.84-.1,0-.07,0-.13-.07-.19a4,4,0,0,1,0-.77ZM69.84,83.57h.23a6.57,6.57,0,0,1-.8-2,.53.53,0,0,0-.24.11.2.2,0,0,1-.26,0c-.27.05-.35.41-.35.78a6.46,6.46,0,0,0,.1.73c.11.5.81.4,1.32.35Zm1.7-21c.26-.17.56,0,.79-.2s.09-1,.11-1.32c0-.57-.77-.35-1.23-.34,0,0,0,.07,0,.11a.37.37,0,0,1-.09.25C71.27,61.53,71.39,62,71.54,62.52Zm5.14,11.22a.14.14,0,0,1,0-.09c0-.64-1.13-.4-1.53-.39h0a13.61,13.61,0,0,1,.77,1.85h0s0,0,0,0c.25,0,.61.07.78-.15s.07-.88.06-1.23ZM22.6,56.35c-.73-.06-.56.78-.55,1.26,0,.9.63.41,1.25.7l-.42-2.2a.24.24,0,0,1-.28.24ZM63.82,83.48c.25-.19.16-.61.16-.88h0c0-.42,0-.65-.16-.78s-.05-.07-.09-.07h-.49c-.22.59-.42,1.19-.59,1.79h0c.28,0,.9.11,1.15-.08ZM30.2,92.63c0,.08,0,.19,0,0s0-.06,0,0c-.06-.47-.75-.42-1.24-.37a.21.21,0,0,1-.24.06l-.08,0c0,.2,0,.41,0,.6a.13.13,0,0,0,0,.06h0a.57.57,0,0,0,.25.41,5.23,5.23,0,0,0,1.44.34.36.36,0,0,1,0-.09,2.58,2.58,0,0,1-.09-1ZM22.14,74.94a2.32,2.32,0,0,0,.7,0,1,1,0,0,0,.33-.13q-.08-.6-.21-1.2a1.5,1.5,0,0,1-.2-.23.75.75,0,0,1-.07-.12c-.24,0-.52.06-.63.28a2.64,2.64,0,0,0,0,1.12.67.67,0,0,0,.1.32ZM72.1,88c-.31,0-1.13-.16-1.38.08s-.16.56-.15.91c0,.18,0,.35,0,.44l1.65-.75a.79.79,0,0,1,.22-.41l0-.11A.31.31,0,0,0,72.1,88ZM83.41,49.68a.9.9,0,0,0,.55.13.15.15,0,0,1,.09-.06l.22-.06h.06a1.17,1.17,0,0,1-.19-.71,1,1,0,0,1,.23-.88c0-.05,0-.1,0-.17a4.61,4.61,0,0,0-.53,0,1,1,0,0,0-.25,0c-.42.12-.37.35-.37.75s-.1.78.15,1Zm-61.2,4.2a1,1,0,0,0,.3,0h.06a5.74,5.74,0,0,0-.16-.63,1.25,1.25,0,0,0-.21-.37l-.15-.08a5.08,5.08,0,0,1,0,.68,1.11,1.11,0,0,0,.19.44Zm-.15,1.39v0a2.18,2.18,0,0,0,0,.25v-.17c0,.76,0,.76.84.76,0,0,0-.08,0-.13,0-.36-.12-1.1-.23-1.79a.1.1,0,0,1-.07,0,1.36,1.36,0,0,1-.29,0c-.07.1-.18.18-.22.29s0,.49,0,.72v0ZM19.92,66.08s0,0,0,0c0,.3.09.46.29.54a1.17,1.17,0,0,1,.09-.32.22.22,0,0,0,0-.06A4.41,4.41,0,0,1,20.84,65c-.36.06-.71,0-.69.58,0,0,0-.1,0-.13a.54.54,0,0,1,0,.11h0a1.46,1.46,0,0,0,.09.62l-.05-.07a1.58,1.58,0,0,1-.05-.78c.11-.36.42-.3.71-.37a.91.91,0,0,1,.11-.16,2.69,2.69,0,0,0-.9,0,.25.25,0,0,0-.13.17,2.66,2.66,0,0,0,0,1Zm2.74,17.73c-.2,0-.41,0-.57.14l0,0a18.78,18.78,0,0,0,1.73,1.32l.13.06v0c0-.19,0-.44,0-.68a1.08,1.08,0,0,0-.13-.62c-.23-.33-.81-.23-1.15-.23ZM22.3,62.63v0a6.41,6.41,0,0,1,1.08-1.75s0-.07,0-.1,0-.08,0-.12a3.71,3.71,0,0,0-1,0c-.63.16-.45,1.47-.16,1.91a.08.08,0,0,1,0,0ZM32.26,86c-.51.61-1.06,1.2-1.62,1.76.41,0,1.35.19,1.64-.14s.1-1.13.07-1.58a.15.15,0,0,1-.09,0ZM72.82,73.57v0c0,.17-.07.33-.09.51a3.72,3.72,0,0,0,0,.75.39.39,0,0,0,.39.25c.37,0,.74,0,1.11,0h.15a6.46,6.46,0,0,0-1.59-1.54Zm-4.32,7.7a.29.29,0,0,0,.13.14.44.44,0,0,0,.15,0h0l.08-.07.17-.08a1.12,1.12,0,0,1-.29-.36.87.87,0,0,1-.06-.32.8.8,0,0,0,.06.3,1.08,1.08,0,0,0,.3.38.66.66,0,0,1,.15,0,13,13,0,0,1-.3-3.29l-.11,0-.26,1.47-.12.65v.36a.36.36,0,0,1,0-.18c.28.2-.11.68,0,1Zm-.56,8.91h0a0,0,0,0,1,0,0h0c-.39,0-1.17-.21-1.46.19a.91.91,0,0,0-.08.53,3.77,3.77,0,0,1,0,.45l1.86-.83c-.09-.11-.14-.27-.3-.32Zm4.5-26.68c0-.73-.19-.66-.82-.87a7.45,7.45,0,0,1,.35,1.8,2.16,2.16,0,0,0,.08.74.47.47,0,0,0,.28.23.66.66,0,0,0,0-.14c0-.05,0-.09,0-.14a.81.81,0,0,1-.14-.58c0-.16.2-.26.25-.44a2.88,2.88,0,0,0,0-.59ZM22.63,71.06c-.5.15-.63.45-.62,1s.12.9.61,1a.79.79,0,0,1,.18-.6c-.05-.43-.11-.88-.17-1.32ZM83.71,47.62h.4a1.43,1.43,0,0,1,.41.09l.09-.15A8.85,8.85,0,0,0,83.26,46a.81.81,0,0,1,0,.27c0,.24-.07.5-.07.71h0c0,.58.21.64.5.64ZM17.08,79.74a5.44,5.44,0,0,1-.81,0,2.12,2.12,0,0,1,.35.48,1.44,1.44,0,0,1,.16.33c.23.17.47.34.72.5a1,1,0,0,1,0,.22c0-.11,0-.28,0-.46.05-.5,0-1-.48-1Zm-1.81-4.46a13.49,13.49,0,0,0-.74,2c.2,0,.64,0,.8-.08s.11-.57.11-.88h0c0-.31.11-.8-.15-1ZM22.68,69h-.07c-.18.07-.4,0-.51.23s0,.65,0,.87c0,.57,0,.69.53.9-.13-.28-.35-.47-.35-.79,0,.3.23.51.35.77h0a18.81,18.81,0,0,1,.07-2Zm-11.11,6.4h0c0,.25.82.69,1.37.82a.35.35,0,0,0,.09-.07,1.07,1.07,0,0,0,.23-.34.56.56,0,0,0,.09-.14c-.17-.5-1.33-.27-1.76-.27ZM81.5,62.71h0c-.19.06-.29.22-.3.61v.36a6.71,6.71,0,0,0,.08,1.1c.28-.69.56-1.34.84-2.08ZM15,77.47c-.18,0-.35,0-.45-.17a.44.44,0,0,0,0,.39,1.45,1.45,0,0,0,.22.5l.35.4a1.1,1.1,0,0,0,.15.16l.25.23c0-.51.23-1.57-.49-1.51ZM35.63,94.36h-.14a.85.85,0,0,0-.93.46l0,.08c.21.1.87.47,1.12.37s.34-.73.39-1h0a1.29,1.29,0,0,1-.38.08Zm-7-15a2.35,2.35,0,0,0,1.13,0l-.06-.09-.18,0h.16a2.49,2.49,0,0,1-.15-.28l-1-.51a.31.31,0,0,1-.11.09,1,1,0,0,0,1,.67,1.07,1.07,0,0,1-1-.64l-.08,0c0,.3,0,.61.32.73Zm2,4.1c.08.14.21.21.27.35h0c-.41.11-.31.38-.31.76a3.83,3.83,0,0,0-.06.8.34.34,0,0,0,.24.33h0a.73.73,0,0,0,0-.27c0-.34.08-.92.12-1.28v-.3a.24.24,0,0,0,0-.18,0,0,0,0,0,0,0,.11.11,0,0,1,0-.06,7.14,7.14,0,0,0,.06-.93c0-.2,0-.4,0-.59a.42.42,0,0,1-.3-.28.44.44,0,0,0-.21.3.52.52,0,0,0,0,.14v.07c0,.17,0,.34,0,.48a1.4,1.4,0,0,0,.14.69ZM75.83,47.68h0c.45,0,.62-.1.72-.3V47a4.84,4.84,0,0,1-.68.1l-.52.19-.61.25s0,0,0,0a4,4,0,0,0,1.1.09s0,0,0,0Zm.07,28.05h0a3.8,3.8,0,0,1,.42,1.78,1.49,1.49,0,0,0,.3-1.36c-.06-.4-.31-.42-.71-.42ZM11.81,51.54h0v.07c.07.34.63.29.92.28s.58-.32.93-.36a.34.34,0,0,0,.33.35,5.84,5.84,0,0,0,1.45-.1.47.47,0,0,0-.17,0,10.91,10.91,0,0,0-1.61-.21c-.61-.18-1.26-.16-1.88-.31a.48.48,0,0,1,0,.31ZM72,69c-.33,0-.67,0-1,0l1.39,1.08V69.9a.17.17,0,0,1,0-.13c0-.38,0-.75-.45-.73Zm-46.54,17a3,3,0,0,1-.66,0h0l.09.14s0,0,0,0c.24.23.48.46.73.66l.25,0v-.15a.19.19,0,0,1,.14-.16c0-.33-.14-.6-.54-.55ZM82,45.56a6.26,6.26,0,0,1,.75,0h.12a1.6,1.6,0,0,0-.68-.57,1.24,1.24,0,0,0-1.09.22.9.9,0,0,0,.9.35ZM20.86,70.9c.56,0,.92.09.93-.55v-.86a.13.13,0,0,1-.08,0h0a13.71,13.71,0,0,0-.84,1.38Zm54,5.18a1.27,1.27,0,0,0,0,.82.63.63,0,0,0,.47.27l.34.06a5,5,0,0,0-.75-1.45,1.59,1.59,0,0,1-.06.3Zm0,10.36c0,.26,0,.51,0,.76s0,.24,0,.35l.19-.19.12-.1a1.1,1.1,0,0,1,0-.18c0-.43.11-1,.12-1.24a.68.68,0,0,0-.44.6Zm8.45-27.52c0,.06,0,.12,0,.21v0c0,.07,0,0,0,0,0,.23,0,.47,0,.71a9.62,9.62,0,0,0,.64-1.34,1.21,1.21,0,0,0-.5.06c-.1,0-.14.13-.14.35ZM34,94.37h0l-.7,0H33a11.7,11.7,0,0,0,1.44.51s0,0,0-.08v-.07c0-.28-.19-.39-.52-.36ZM76,66.92h-.27a5.18,5.18,0,0,0,.93.75c.09-.63,0-.76-.66-.76Zm-56.9,15h-.05a.34.34,0,0,1-.14,0L19,82a2.81,2.81,0,0,0,.62.53v.1a1.83,1.83,0,0,0,0-.35c-.05-.23-.18-.31-.53-.33ZM37.4,85.68a2.11,2.11,0,0,0-.31-.36.42.42,0,0,1-.24-.21l0,0c0,.56,0,.57.6.59Zm-8.09,4.21h0c.83,0,.89-.18.94-1v-.15c0-.65-.2-.67-.93-.67s-.92,0-.95.77v.21a1.25,1.25,0,0,0,.08.57.42.42,0,0,0,.34.23,3.79,3.79,0,0,0,.52,0ZM20.88,56.37h-.11c-.68,0-.79.14-.79.91v0h0c0,.74.1.91.91.92s.91-.11,1-.92-.15-.94-.95-1ZM20,78.67c0,.4,0,.57.4.65a3.17,3.17,0,0,0,1,0c.54-.08.4-.5.4-1s0-.84-.64-.86c-.27,0-.87-.12-1.11.09s-.08.81-.07,1.1Zm-1.24-3.26c-.79,0-.86.09-.86.88,0,.59-.05.87.59.93a2.28,2.28,0,0,0,1.08,0c.22-.16.18-.64.2-.9v-.12c0-.65-.31-.73-1-.73ZM33.84,88c-.25,0-.91-.12-1.11.06s-.11.88-.13,1.19c0,.72.5.61,1.06.6s.75,0,.79-.56S34.61,88,33.84,88ZM15.71,57.45c0,.85.41.79,1.17.78.6,0,.66-.2.66-.64v0c0-.1,0-.21,0-.35,0-.82-.12-.82-.93-.82h0c-.8,0-.91.18-.91.86v.22Zm.93,13.46c.78,0,.92-.07.92-.84v-.14c0-.7-.09-.86-.9-.86s-.89.11-.91.89a2.08,2.08,0,0,0,0,.25c0,.58.17.65.9.7ZM32.34,89c0-.6,0-.94-.64-1a2.1,2.1,0,0,0-1.06.09.66.66,0,0,0-.15.49c0,.13,0,.27,0,.38v.18c0,.59.15.69.72.71h.18c.82,0,.94-.09.94-.9ZM19.92,61.74c0,.79.4.72,1.14.71s.72-.13.72-.82c0-.85,0-1.08-.9-1s-1,.25-1,1.14ZM17.57,72c-.08-.76-.17-.88-.94-.88s-.92.12-.92.92.13.88.78.93h.17c.84,0,1-.13.9-1Zm1.15-13.75c.83,0,1-.13,1-1s-.16-.95-1-.95-.86.2-.86,1,.05.94.9.94ZM33.56,87.79c.79,0,.89-.14.89-.91s0-.94-.75-.95h-.31c-.64,0-.83.09-.83.89h0c0,.85.14,1,1,1ZM18.74,54.26c-.86,0-.9.24-.93,1.05v.07c0,.75.34.73,1.08.74s.78-.25.78-.84V55c0-.77-.18-.75-.93-.75ZM36.52,86.09c-.16-.25-.53-.14-.78-.13-.81,0-1.17-.14-1.17.8s.16,1,1,1h.13c.63,0,.79,0,.8-.76,0-.14,0-.41,0-.62a.72.72,0,0,0-.07-.32Zm-6.28.55v.23c0-.83-.12-1-.95-1s-.92.14-.92.93,0,.94.76,1l.24,0c.68,0,.87-.1.87-.91,0-.12,0-.19,0-.24ZM23,79.6c-.83,0-.94.11-.94.93s.2.93,1.08.92.77-.24.77-.93-.13-.92-.91-.92Zm2.12,2.1h-.32c-.49,0-.62.12-.62.74,0,.86-.06,1.16.87,1.17.22,0,.71.09.88-.13s0-.8.07-1C26.08,81.63,25.85,81.72,25.11,81.7Zm-8.68-15h.49c.52,0,.64-.1.64-.78,0-.85-.17-1.11-1-1.1s-.8.25-.8,1,.06.88.72.9Zm4.48,13c-.83,0-.95.09-1,.91v.13c0,.72.19.78,1,.77s.85-.19.86-1v-.11C21.78,79.69,21.68,79.54,20.91,79.64Zm.63-4.13a1.44,1.44,0,0,0-.68-.09c-.7,0-.95,0-.93.77s.08,1.07.92,1.07,1-.14.93-1v-.14a1.09,1.09,0,0,0-.06-.4.34.34,0,0,1-.17-.22ZM19.91,54.78A3.06,3.06,0,0,0,20,55.91c.2.35.95.26,1.33.21.61-.08.52-.6.51-1.12,0-.76-.26-.77-1-.7-.52,0-.81-.21-.9.48Zm7,26.67c.66,0,1.17.12,1.21-.62s.05-1.14-.81-1.22c-.65,0-1-.13-1,.61s-.12,1.19.64,1.23Zm-5.79-8.2h-.29c-.89,0-1,.47-.89,1.29s.55.58,1.16.57c.26,0,.49,0,.66-.19a2.31,2.31,0,0,0,.08-1c0-.55-.3-.62-.72-.62Zm7.75,6.34c-.59,0-.47.34-.47.8s-.17.88.28,1a3.16,3.16,0,0,0,1.3,0c.37-.15.25-.54.21-.89,0-.12,0-.26,0-.41h0a.2.2,0,0,1,0-.11.28.28,0,0,0,0-.09A3.24,3.24,0,0,0,30,79.6a3.77,3.77,0,0,0-1.11,0Zm4.3,12.67c-.7.06-.61.63-.57,1.25s.51.62,1.13.61c.8,0,.8-.31.72-1.06S34,92.17,33.16,92.26ZM20.86,58.48c-.76,0-.9.12-.94.89,0,.09,0,.19,0,.27,0,.6.17.7.91.7s.94-.1.94-.92v0c0-.79-.1-.91-.9-.91Zm-4.2,6.08c.79,0,.91-.14.91-.92s0-.93-.88-.93-.94.1-1,.93S15.87,64.56,16.66,64.56Zm12.7,17.2c-.26,0-.64-.07-.83.15a2.27,2.27,0,0,0-.15.94c-.07.9.47.71,1.22.69s.64-.1.64-.76c0-.82,0-1-.88-1ZM14.33,73c.14,0,.28,0,.4,0,.39,0,.68-.06.72-.55.07-.68.15-1.29-.61-1.3h-.12c-.12,0-.37,0-.58,0a.73.73,0,0,0-.42.09c-.19.17-.1.57-.09.81h0c0,.74,0,.94.72,1ZM15,64.81c-.33,0-.91-.12-1.21,0s-.17.65-.17,1c0,.73,0,.85.78.86.4,0,.83.1,1-.33s.25-1.55-.4-1.53Zm21.4,25.45v0a.74.74,0,0,0-.43-.12l-.35,0c-.3,0-.77-.11-.92.26a4.77,4.77,0,0,0,0,1c0,.61.28.62.81.61a1.65,1.65,0,0,0,.88-.14,4.16,4.16,0,0,1,0-.61c0-.34,0-.66,0-1ZM23,77.48c-.86,0-.93.2-1,1.07s.2.78.9.78.93,0,.95-.78,0-1.07-.88-1.07Zm-6.35,1.86c.79,0,.83-.22.89-1s-.08-.89-.87-.89-1,.25-1,1.15.22.72,1,.71Zm3-18.27c0-.26-.1-.47-.46-.47s-1.22-.27-1.39.29a.64.64,0,0,0,0,.31,5.16,5.16,0,0,0,0,.61c0,.06,0,.1,0,.14a.51.51,0,0,0,.11.4,2.35,2.35,0,0,0,1.44.06.43.43,0,0,0,.3-.46c0-.12,0-.25,0-.41h0c0-.15,0-.31,0-.47Zm-3.09-5h.2c.72,0,.77-.09.77-.9s-.22-1-1.08-1-.77.24-.77.93.12.92.88.93Zm.87,17.21c-.22-.18-.74,0-1,0-.72,0-.79.09-.75.81,0,.2-.07.8.11,1s.58.06.79.06.37,0,.27,0c.66,0,.74-.23.71-1,0-.18,0-.6-.13-.75Zm-1.75-13.8a1.2,1.2,0,0,0,.26.78c.22.16.56,0,.8,0l.11,0s0,0,0,0a.17.17,0,0,1,.16-.09h.35a5,5,0,0,0,.2-.69,1.65,1.65,0,0,0-.11-.85c-.24-.43-.83-.32-1.26-.25s-.6.48-.54,1Zm.3,2.91c.34.11,1.33.16,1.52-.2a1.67,1.67,0,0,0,.11-.69,1.49,1.49,0,0,0-.22-.93h-.36a.15.15,0,0,1-.1,0c-.42,0-1.06-.12-1.24.26a1.46,1.46,0,0,0-.09.56c0,.45.1.94.38,1Zm9.07,17.16c-.43,0-.81-.08-.93.39a2,2,0,0,0,.14,1.36c.23.22,1,.16,1.28.12.52-.07.46-.45.42-.92.08-1.1,0-.94-.91-1Zm2.09,6c.78,0,.95-.07,1-.88s-.07-.94-.85-1-1,0-1,.84,0,1,.9,1ZM18,62.77a2.23,2.23,0,0,0-.28,1.3c0,.54.1.54.63.54v-.06h.79c.42,0,.47-.37.47-.68s.19-.92,0-1.09a2.51,2.51,0,0,0-1.58,0Zm-.38,4.93c0-.4.14-.8-.41-.78-.81,0-1.36-.21-1.41.76,0,.81,0,1.08.82,1.1.22,0,.72.1.9-.08s.11-.74.11-1Zm11.9,18c.72,0,.78-.29.78-.87v-.26c0-.75-.18-.78-.93-.78s-.83.15-.87.94c0,.16-.06.34-.06.51a.4.4,0,0,0,.12.38c.19.18.73.1,1,.09ZM18.82,77.47c-.6,0-1-.06-1,.62,0,.17.09.35.09.52s-.09.33-.06.42c.14.44.87.32,1.26.3.7,0,.55-.38.57-1,0-.79-.07-.88-.89-.88Zm-4.69-15c.44,0,1.21.17,1.33-.34a4.93,4.93,0,0,0,0-1c0-.27.06-.46-.28-.47a4.26,4.26,0,0,1-.94,0c-.6-.11-.66.19-.64.71s-.18,1.07.5,1.11ZM33.82,90.16c-.26,0-.82-.12-1,0s-.12.73-.14,1.08c0,.13,0,.2,0,.24s0-.1,0-.16c0,.8.45.68,1.21.64s.58-.25.6-.89,0-.92-.64-1ZM14.92,58.49a6.28,6.28,0,0,0-1,0c-.47.09-.38.6-.36,1,0,.72,0,.83.7.85.5,0,1,.25,1.15-.33s.17-1.55-.52-1.48ZM13.56,53.2c0,.15,0,.31,0,.4.05.39.26.45.6.45h.15c.94,0,1.1,0,1.1-1,0-.38,0-.68-.4-.81s-1-.29-1.3,0a1.9,1.9,0,0,0-.17.95Zm1.8,4.45h.08c0-.42.12-1-.33-1.11s-1.35-.19-1.47.14a3.73,3.73,0,0,0,0,.83,1.69,1.69,0,0,0,0,.55c.14.29.38.32.69.31h0v0c.81,0,1.07.25,1.07-.7Zm-1.49,13.2a2.65,2.65,0,0,0,1.45,0c.31-.23.13-1.15.12-1.49s-.66-.27-1-.29-.66-.1-.83.14-.11,1.49.22,1.66Zm-2.21-17a.74.74,0,0,0,.42.1c.27,0,.88.13,1.09-.05s.17-.69.17-1,.08-.63-.22-.78-1.12,0-1.45,0a.56.56,0,0,0-.1.33,3.42,3.42,0,0,1-.06.78c.05.21.11.43.15.64ZM28.13,82.3c0-.6-.26-.66-.92-.66s-1,.08-1,.71v.16c0,.81.11,1,.93,1,.23,0,.69.08.85-.11s.08-.27.08-.47,0-.31,0-.42V82.3ZM19.67,66c0-.71.07-1.12-.71-1.14s-1-.18-1.11.52-.15,1.17.73,1.29,1.06.16,1.09-.67Zm-5.09,1c-.95,0-.86.22-.93,1,0,.1,0,.19,0,.27,0,.55.24.59,1,.58s.88-.13.87-.74V68c0-.79-.08-1-.92-1Zm1.59,10.26c.42,0,1,.12,1.19-.28a2.17,2.17,0,0,0,.16-1c-.15-.63-.75-.6-1.28-.58-.69,0-.66.9-.65,1.4s.15.46.58.46ZM13.78,64.68a2.12,2.12,0,0,0,1.48-.16c.34-.28.43-1.85-.21-1.82h0a3.26,3.26,0,0,0-1.28.22c-.26.17-.16.75-.16,1.07h0c0,.31-.1.53.18.69Zm5.57-6.17c-.3-.1-1.28-.11-1.46.17a2.88,2.88,0,0,0-.08,1.11c0,.3.05.55.41.55a4.06,4.06,0,0,0,1.21,0c.28-.16.22-.61.24-1s.06-.71-.32-.84Zm.33,9.23c0-.53-.09-.8-.77-.82s-1.16-.1-1.16.59.13,1.24.92,1.27l0,0h.07c.17,0,.31,0,.44,0a.49.49,0,0,0,.38-.14.87.87,0,0,0,.16-.61c0-.09,0-.18,0-.26Zm12,22.4a.21.21,0,0,0-.08,0c-.69,0-1,0-1.07.75S30.38,92,31.13,92c.57,0,1.13,0,1.21-.61s.11-1.27-.64-1.27Zm-9.64-7.47c.06.76.27.84,1,.89s.88-.18.83-.86-.18-1-1-1-.92.18-.85,1ZM12.35,56.05a1.1,1.1,0,0,0,.74.05c.36-.17.42-1.82,0-1.82a3.12,3.12,0,0,0-1.36.09l.41.73c.23.26-.05.72.22.94Zm.41,6.65c-.73,0-.6.41-.6,1s0,1,.77.82c.57-.1.41-.65.4-1.15s0-.7-.57-.7ZM13,64.82l-.17,0h0c-.29,0-.49,0-.6.33s-.15,1.27.12,1.5a.67.67,0,0,0,1-.39c.07-.43.19-1.32-.38-1.41Zm-.25,4c.85,0,.64-.74.63-1.42,0-.4-.74-.65-1.05-.39s-.17.53-.15.84a1.35,1.35,0,0,1,.17.91.9.9,0,0,0,.39.06ZM13.33,61c0-.39-.48-.47-.78-.33s-.27.47-.41.77v.32c0,.54.09.73.67.7C13.58,62.4,13.32,61.6,13.33,61Zm-.93-2.64a1.17,1.17,0,0,0,.74,0c.16-.1.26-.53.26-.95s-.09-.79-.28-.86t0,0v-.06l-.16,0h0c-.62-.08-.71.55-.71,1.14,0,.32-.09.55.16.71Zm.5.12c-.39,0-.59,0-.66.41s-.17,1.28.25,1.45a.61.61,0,0,0,.84-.44c.09-.43.2-1.41-.44-1.42Zm5,16.51c.2.25,1.34.23,1.56.11.46-.24.25-1.51.14-1.92l-.84,1.64-.09,0v-.1c.05-1.06.12-2.13.17-3.21l.1-.33-.05,0-.15.07s-.09,0-.09-.1l-.86,0v.05s0,0-.06.06a2.6,2.6,0,0,0,0,1.51c.15.31.6.23.9.23,0,.43-.34.18-.57.25s-.06,0-.12.29-.36,1.14-.08,1.46ZM73.74,53.89a.18.18,0,0,1,.17.11h.22c.38-.06.41-.18.41-.56a2.87,2.87,0,0,0,0-1c-.11-.36-.32-.27-.65-.27-.6,0-1.15-.25-1.17.49,0,.38-.11.91.11,1.23.31,0,.61,0,.92,0Zm.68.41c-.07-.06-.56,0-.79-.06l-.74,0a.75.75,0,0,0-.16.77c.11.56-.24,1,.52,1.08.53,0,1.21.19,1.31-.41,0-.28.13-1.2-.14-1.4Zm6,8.4-.4,0c-.13,0-.3,0-.47,0a.66.66,0,0,0-.44.11c-.21.22-.09.83-.09,1.1s-.09.2-.12.2-.15-.4-.15-.56h0c0-.59,0-.8-.63-.82-.14,0-.29,0-.44,0-.34,0-.67.07-.77.4s-.06,1.25.24,1.45c.6.37,1.54-.29,2.21,0a4,4,0,0,0,1.29,0c.27-.15.23-.39.24-.69s.15-.78,0-1a.59.59,0,0,0-.49-.16ZM79,51.3a.88.88,0,0,1,0-.16.33.33,0,0,0,0,.16h0c0,.32,0,.51.27.59a1.35,1.35,0,0,0,.37,0,4.26,4.26,0,0,0,.72-.07.57.57,0,0,0,.45-.47h0a1.34,1.34,0,0,0,0-.28,1.26,1.26,0,0,0,0-.67.46.46,0,0,0-.49-.46,6.4,6.4,0,0,0-.7.09c-.57.09-.58.39-.69.83,0,.13,0,.26,0,.4ZM77.86,73c.77,0,.9-.12.9-.89h0c0-.82-.1-1-.93-1s-.92.18-.92.85v.25c0,.72.25.76,1,.76Zm-2-20.86c-.65,0-1-.13-1.08.6,0,.17,0,.33,0,.48,0,.47.09.81.7.8s1.16,0,1.18-.76c0-.14,0-.28,0-.4,0-.5-.11-.72-.8-.72Zm1.63,14.54a2.55,2.55,0,0,0,1.1-.08c.32-.22.16-.62.19-.93v-.24c0-.44-.12-.63-.66-.63s-1.07-.11-1.21.42-.13,1.39.58,1.46ZM73.16,51.87v0c.42,0,1.26.17,1.27-.41,0,0,.08,0,.08,0s.06-.13,0-.2c0-.26.14-1-.17-1.14A1.63,1.63,0,0,0,73,50.05l.07,0a.64.64,0,0,0-.18.06l-.05,0a.5.5,0,0,1-.17.21,0,0,0,0,1,0,0,5.2,5.2,0,0,0-.14,1.17c-.11.5.3.35.63.35Zm6.73,2.37c-.3,0-.61-.05-.78.24A2.19,2.19,0,0,0,79,55.53c0,.7.64.6,1.25.56s.62-.53.62-1.19-.31-.64-1-.66Zm-3.62,8.5a6.13,6.13,0,0,0-.81-.1.79.79,0,0,0-.55.15,2.26,2.26,0,0,0-.08,1.39c.11.35.37.38.67.38l.3,0h.09l.36,0a.41.41,0,0,0,.32-.12c.17-.17,0-.66.07-.89a2.26,2.26,0,0,0,0-.25v0h0v0h0v0c0-.1,0-.08,0,0,0-.29,0-.47-.42-.54ZM78.08,54c.64,0,.69-.2.69-.65V53c0-.84-.11-.87-.92-.87s-.94.13-.94.94c0,.09,0,.21,0,.34a.63.63,0,0,0,.18.52c.22.16.75.07,1,.07Zm-3.8,4.49a2.53,2.53,0,0,0-1.06,0c-.37,0-.47.08-.52.47,0,.21,0,.42,0,.64a1.54,1.54,0,0,0,0,.47c.09.24.25.27.46.28v0c.1,0,.12,0,.18,0h0v0c.43,0,1.07.18,1.19-.37a.15.15,0,0,0,0-.07,2.53,2.53,0,0,0,0-.5c0-.37-.09-.75-.35-.88Zm.65,3.89c.25.22,1.51.24,1.67-.14a1.66,1.66,0,0,0,.07-.7,1.46,1.46,0,0,1-.11.66,3.88,3.88,0,0,0,0-1.48,3.74,3.74,0,0,0-1.61-.1c-.32.13-.47,1.59,0,1.76Zm2.9-1.81c-.9,0-.93.23-.91,1.1s.31.76,1,.76.81-.13.8-.92-.11-.94-.94-.94Zm.9-10.27c-.17-.26-.49-.18-.78-.28-.83,0-1-.06-1,.8,0,.12,0,.26,0,.36,0,.44.11.65.73.67s1.1.17,1.14-.56c0-.12,0-.36,0-.58a1,1,0,0,0-.07-.41ZM73.05,62.44a.87.87,0,0,0,.49,0h0l.29,0c.28,0,.51,0,.61-.38a2.64,2.64,0,0,0-.06-1.34.88.88,0,0,0-.64-.17,3,3,0,0,0-.7.07c-.46.14-.42.53-.42,1v0c0,.75,0,.87.41.86ZM82.54,48h0s0,0-.07,0h-.18c-.7,0-1.14-.16-1.17.65s0,1.15.84,1.13c.25,0,.75.12,1-.09s.11-.83.1-1.08c0-.46-.13-.59-.49-.61ZM74.9,54.37c-.2.2-.06.67-.05.91s-.12.81.36.83,1.32.27,1.45-.43c.06-.31.15-1.18-.16-1.4a2.71,2.71,0,0,0-1.6.09Zm6,4.7c0-.66-.31-.58-.94-.58-.81,0-.92.1-.94.91v.09c0,.53,0,.8.62.84.31,0,.87.09,1.1-.13a.84.84,0,0,0,.18-.62c0-.18,0-.36,0-.51Zm-3-.59c-.84,0-1,.12-1,.94s.13.92,1,.91.88-.18.89-1-.05-.89-.89-.89Zm-3.42-2c-.14-.2-.68-.11-.87-.1-.63,0-.89,0-.92.66s-.12,1.17.68,1.2c.23,0,.9.14,1.08,0s.12-.83,0-1,.17-.5,0-.71Zm-.71,6.21c-.67,0-1.06,0-1.08.76s0,1.1.93,1.1.94-.12.94-.95,0-.92-.79-.91Zm2-4.21c-.74,0-.92-.09-.93.72s0,1.16.9,1.13,1-.22,1-1.09S76.51,58.48,75.76,58.48Zm0-10.56c-.24,0-.7-.08-.88.13s-.06.79,0,1c0,.56.09.69.65.71a2,2,0,0,0,.9,0c.42-.21.3-.85.28-1.25,0-.64-.31-.56-.9-.57Zm6.74,10.55c-.78.06-1.29-.23-1.31.7s0,1.16.9,1.16a4.21,4.21,0,0,0,.51,0,.45.45,0,0,0,.4-.43,4.16,4.16,0,0,0,.06-.58c0-.43-.1-.87-.56-.84ZM76.1,50c-1-.05-1.24.12-1.24,1.14v0c0,.7.24.74.88.74h.18v0c.42,0,.73,0,.77-.63a4.18,4.18,0,0,0,0-.59c0-.37-.11-.62-.63-.65Zm3.13,12.35a2.68,2.68,0,0,0,1.43,0c.22-.1.25-.26.25-.48a2.09,2.09,0,0,1,0-.25v-.3c0-.8-.05-.8-.93-.8-.57,0-.78,0-.88.6a4,4,0,0,0-.08.64.57.57,0,0,0,.23.54ZM77,56a2.6,2.6,0,0,0,1.41.07c.49-.1.36-.53.36-1,0-.24.12-.58-.08-.78s-.47,0-.72,0c-.46,0-.91-.15-1,.38,0,.21-.13,1.17.06,1.35Zm3.8-6.4c.18-.21.09-.82.08-1.06s0-.7-.53-.66-1-.16-1.23.33c-.12.32-.21,1.25.09,1.46a2.12,2.12,0,0,0,1.59-.07Zm-.42,6.72c-.31,0-.86-.13-1.13.07s-.2.71-.18,1c.06.78.32.78,1.07.78.47,0,.69.05.74-.45s.24-1.55-.5-1.42ZM78.23,73.25c-.51,0-1.18-.18-1.3.41a3.08,3.08,0,0,0,0,1.21c.24.49,1.63.36,1.75-.17a2.07,2.07,0,0,0,.07-1C78.73,73.34,78.66,73.27,78.23,73.25Zm.53-16.56c-.11-.51-.78-.34-1.24-.32-.62,0-.65.28-.56.77,0-.18-.06-.32,0,.22s-.19.74.33.88a3.36,3.36,0,0,0,1.22,0c.32-.17.29-1.17.22-1.51ZM81.23,58a2,2,0,0,0,1.54.17c.42-.21.23-1.13.22-1.52s-1.45-.48-1.73-.18a2,2,0,0,0,0,1.53Zm1.54-3.5c-.46.07-1,0-1.41.05a.35.35,0,0,1-.2,0,4,4,0,0,0,.08,1.1c.07.55.37.46.89.46.36-.05.73.13.87-.3a6.33,6.33,0,0,0,.06-.78.85.85,0,0,0-.1-.46.27.27,0,0,1-.18-.05ZM77.41,75.37c-.64-.09-.44.68-.46,1.06,0,.92.38.73,1.15.79a3.06,3.06,0,0,0,.53-1.86A5.54,5.54,0,0,1,77.41,75.37Zm3.9-23.21a2.43,2.43,0,0,0-.12,1.65.28.28,0,0,1,.16-.06,7.12,7.12,0,0,1,.8,0c.18,0,.55,0,.71-.08a.47.47,0,0,1,.12-.07s0,0,0,0l-.06-.32a12.77,12.77,0,0,0-1.63-1.08Zm-.75,14.76-.31,0a2,2,0,0,0-1,.07c-.28.18-.16.48-.15.79s-.15.74.09.95a.74.74,0,0,0,.67,0,.51.51,0,0,0,.22-.12l.52-1.6v0s0,0,0-.07ZM79,69.69c0,.34-.12,1.42.36,1l0,0c.18-.49.13-1.07.43-1.5a.58.58,0,0,0-.14-.05c-.55-.19-.71,0-.71.59Zm-2.36,9.57c0-.08,0-.19,0-.29,0-.44-.07-.88-.09-1.32a.35.35,0,0,0-.19-.17c0,.38.16.76,0,1.16a.65.65,0,0,1-.41-.43,4.74,4.74,0,0,0-.3-.74h-.28c-.47,0-.65.15-.65.76,0,.28-.11.87.12,1a3,3,0,0,0,1.69,0h.1s0-.06,0-.09a.18.18,0,0,1,0,.07ZM77,77.73c0,.45,0,.91.1,1.36,0,0,0,0,0,0a1.1,1.1,0,0,0,.09-.14A13.13,13.13,0,0,0,78,77.49h-.5a.45.45,0,0,0-.48.25Zm-3.26,3.74c.78,0,.86-.15.86-.93s-.06-.9-.9-.9-1,.07-1,.9.15.93,1,.93Zm-2.14,4.46c-.33,0-.72-.09-.92.23a2,2,0,0,0-.05,1c0,.55.26.61.72.62h.21c.48,0,.84.11.92-.42a3.06,3.06,0,0,0,0-1.13c-.14-.41-.51-.31-.86-.31Zm2.07-6.6c.82,0,.93-.18.93-.87v-.22c0-.73-.24-.76-.93-.76s-.89.14-.89.92h0c0,.81.07.92.9.92Zm.22-4c-.88,0-1,0-1.11.86s0,1,.73,1h.39c.62,0,.7-.1.7-.86s.05-1-.71-1ZM74,83.81c-.15,0-.42,0-.69,0a.88.88,0,0,0-.5.11c-.3.26-.1.84-.1,1.18v0a.5.5,0,0,0,0,.12l0-.12c-.08.75.81.64,1.35.58s.47-.48.47-1,.06-.81-.53-.84Zm0-2.1h-.34c-.59,0-1-.08-1,.6a3.29,3.29,0,0,0,0,.94c.09.33.25.28.6.3.56,0,1.2.22,1.24-.49,0-.45.13-1.38-.49-1.34Zm2.24-2.07c-.77,0-1.48-.26-1.49.68v.08c0,.83.11,1.07,1,1.07a13,13,0,0,0,.86-1.6C76.64,79.67,76.49,79.64,76.31,79.64ZM74.82,82.3c0,.54-.2,1.4.58,1.19a5.21,5.21,0,0,1,.28-1.77h-.2c-.44,0-.65,0-.66.59ZM75,83.84c-.39,0-.47,1.87.2,1.83a7.37,7.37,0,0,0,.1-1.49c0-.17-.07-.35-.3-.34Zm-9,2.27c-.17-.23-.52-.19-.78-.18h-.05c-.78,0-1,0-1,.8s0,1,.88,1.06a2.87,2.87,0,0,0,.64,0,.35.35,0,0,1,.28-.28,1.36,1.36,0,0,0,.06-.45c0-.22.09-.73-.06-.92Zm-.24,2a1.93,1.93,0,0,0-.66,0c-.79.06-.91.12-.91.93s.17.92,1,.92.85-.18.86-.94a1.51,1.51,0,0,0-.1-.7.41.41,0,0,1-.19-.16Zm.24-4.1c-.17-.27-.53-.18-.82-.18-.9,0-1,.18-1,1.07,0,.45,0,.7.47.76s1.43.18,1.4-.52c0-.29.1-.88-.07-1.13Zm-2.14,2.06c-.21-.21-.43,0-.67-.1-.4-.18-1-.14-1.1.3a2.61,2.61,0,0,0,.09,1.44c.21.21,1.16.13,1.41.07.47-.11.35-.53.35-1,0-.22.11-.56-.08-.75Zm3.9,2c-.33,0-1.11-.15-1.34.13s-.11.8-.09,1.06c0,.58.2.63.76.67.4,0,.87.13,1-.29s.22-1.58-.37-1.56ZM14.57,54.26c-.83,0-1,.28-1,1,0,.05,0,.1,0,.15,0,.84.42.74,1.17.73s.68-.23.7-.93V55C15.48,54.37,15.32,54.27,14.57,54.26Z"/><path class="cls-6" d="M33.18,81.74,33,81.52c-.09-.1-.19-.18-.28-.27a.78.78,0,0,0-.8-.19.76.76,0,0,0-.47.64c0,.38-.06.76-.07,1.12a7.5,7.5,0,0,1-.15,1.45l-.18.78h1.19l.17-.35.49-1,.49-1a.82.82,0,0,0-.12-.93l0-.05ZM67.66,77l-.22-.09a1.09,1.09,0,0,0-1,.17.61.61,0,0,1-.14.07.92.92,0,0,0-.7.94,24.28,24.28,0,0,0,.3,3l.32,2,.86-1.83a2,2,0,0,0,.2-.7l0-.08.25-1.5.13-.72s0-.1,0-.15a1.16,1.16,0,0,0,0-.89l-.1-.22Zm-1.21-8.77c-.28,0-.55.08-.82.12a6,6,0,0,1-2.11.08l-.11,0a2.11,2.11,0,0,0-.61-.06H60.34l2.24,1.21a4,4,0,0,0,2.06.66,4.56,4.56,0,0,1,.72.06l.31,0h0a12,12,0,0,0,1.22.06,15.93,15.93,0,0,0,2.46-.2l1.78-.27L69.58,69a5,5,0,0,0-3.13-.79Zm-41.58-.56a.76.76,0,0,0,.47-.16l.14-.09.12-.09,0,0a10.74,10.74,0,0,1,4.6-2l2.19-.39c1.75-.3,3.55-.61,5.3-1.05A6.69,6.69,0,0,0,39,63.46l5-2.07L36.4,62.64l-1.27.15c-1.3.17-2.64.33-4,.47a11.37,11.37,0,0,0-3.45.8l-1.12.52c-.42.2-.83.4-1.26.59A1.65,1.65,0,0,0,24.24,67a.34.34,0,0,0,0,.1v.58Zm48.2-1A4.06,4.06,0,0,0,71.23,66l-1.36-.18a.62.62,0,0,0,.35-.12,1,1,0,0,0,.43-.56l.07-.18-.06-.18c0-.07,0-.15,0-.22l-.06-.27,0-.11L66.87,59l-1.08-.94,0,0,.66.37.65.35a.88.88,0,0,0,.7.11l.82-.23L68.2,58a17.68,17.68,0,0,0-3.7-3.13,18.18,18.18,0,0,1-1.8-1.37,1.29,1.29,0,0,0-.17-.16l-.05,0-.08-.08-.1-.05a13.35,13.35,0,0,0-1.38-.5l.09,0a5.82,5.82,0,0,1,1.32.4,25,25,0,0,1,2.87,1.51,4.11,4.11,0,0,0,.86.5l2.57,1.11-1.86-2.1c-2-2.25-5-5.25-8.22-6.74l-.11,0,0,0a4.72,4.72,0,0,0-3,.14h0a.89.89,0,0,0-.63,1.14A7.94,7.94,0,0,1,55,51.08v.39a1,1,0,0,0,.59,1,.89.89,0,0,0-.3.19,1.07,1.07,0,0,0-.28.83L55,54l-.2-.4v2a1.62,1.62,0,0,0,0,.62v.36l.11.11.07.12h0l.12.31L55,57a.68.68,0,0,0-.95.24,2.84,2.84,0,0,0-.27-2,.75.75,0,0,0-.07-.12l.21.05.24-.28a2.66,2.66,0,0,0,.43-1.22l0-.14A7.5,7.5,0,0,0,54.44,50a8.47,8.47,0,0,0-3.11-5,14.26,14.26,0,0,0-5.44-2.6c-2.21-.47-4.52.22-6.55.83l-.51.15-1.12.4a5.55,5.55,0,0,0-.93.5,22.49,22.49,0,0,0-3.58,2.62.86.86,0,0,0-.14.13l-.12.11,0,0c-.3.24-.54.47-.78.69l-.34.31-.22.19a32.51,32.51,0,0,0-3.06,4.13,13.31,13.31,0,0,0-1.23,2.16c-.15.34-.34.67-.53,1A13.36,13.36,0,0,0,26.07,57l-.95,2.33,1.93-1.62c.79-.65,1.53-1.38,2.26-2.09l.1-.09.11-.11.07-.06a5.29,5.29,0,0,1,.93-.81l.76-.5a16.51,16.51,0,0,1,3.53-1.93L35,52l.87-.35.13-.06a5.74,5.74,0,0,1,1.42-.5l1.07-.19,1.71-.31a16.15,16.15,0,0,1,3.41-.39,16.9,16.9,0,0,1,3.21.41,9.77,9.77,0,0,0-1.71-.12c-.95,0-1.94.07-2.9.08a13.85,13.85,0,0,0-2.64.32,22.83,22.83,0,0,0-9.31,4.62,40,40,0,0,0-3.56,3.3l-1,1a1.46,1.46,0,0,0-.26.34c-.95,1.5-1.91,3-2.85,4.51a3.57,3.57,0,0,0-.45,1.06l-.41,1.72,1.4-1.08.16-.12L23.6,66a10.6,10.6,0,0,1,4-2h.05a20.18,20.18,0,0,1,5.29-1,45.83,45.83,0,0,0,7.89-1.38,15.62,15.62,0,0,0,4.75-1.93,20.31,20.31,0,0,0,2-1.53,2.41,2.41,0,0,1-.46,1.31,6.69,6.69,0,0,1-2.61,1.91l-.06,0a30.8,30.8,0,0,1-6.15,2.37c-.84.23-1.72.41-2.57.58s-1.47.3-2.21.49c-.55.14-1.11.25-1.66.37a16,16,0,0,0-4.31,1.33,5.77,5.77,0,0,0-2.63,2.68,3.06,3.06,0,0,0-.19,2l.41,1.62.75-1.48.21-.42a5.16,5.16,0,0,1,.41-.75,4.11,4.11,0,0,1,2.62-1.57c.67-.12,1.34-.2,2.06-.28l1-.1c1.25-.16,2.54-.26,3.78-.36,1.52-.11,3.09-.23,4.63-.47a15.66,15.66,0,0,0,6.58-2.2l1.06-.68a16.51,16.51,0,0,0,3-2.26,11.08,11.08,0,0,0,2.3-3.13,4.84,4.84,0,0,0,1.28,4.39l.19.17a14.41,14.41,0,0,0,4,2.71,25.42,25.42,0,0,0,4,1.43,5.27,5.27,0,0,0,1.7.13l.21,0a28.84,28.84,0,0,1,3.93-.27l.78,0a23,23,0,0,1,3,.17l2.45.37-2-1.48Zm-14.46-5.8c.57.44,1.15.87,1.74,1.28l.59.43a9.4,9.4,0,0,0,2.48,1.47c.37.13.74.28,1.1.42.52.21,1.06.42,1.6.59a2.64,2.64,0,0,0,.4.12l.29.1h.06c.62.13,1.27.25,1.83.35a39.24,39.24,0,0,1-4.33-.78,6,6,0,0,1-2.49-1.14c-1.29-1.1-2.34-2-3.27-2.85Z"/><path class="cls-2" d="M61.4,91.83C61,90.9,60.64,90,60.28,89l-.2-.48,0-.07a.74.74,0,0,0-.18-.29l-.13-.1-.37.46a10.27,10.27,0,0,1-1.75,2.11l-.22.28a8.67,8.67,0,0,1-1.9,1.13,11,11,0,0,0-1.22.64l-.44.26.51,0L55,93a12.12,12.12,0,0,1,4.24,1c.47.22.5.61.55,1.07,0,.15,0,.18,0,.18s0,0-.06,0h0a.4.4,0,0,1-.19,0,35.56,35.56,0,0,0-4.92-1.41l-1.41-.35-.1,0-.11,0h0a.32.32,0,0,0-.25.29.51.51,0,0,0,.38.69c.25.06.51.16.77.25.5.18,1,.33,1.5.48a14,14,0,0,1,3.93,1.68.76.76,0,0,0,.42.15,1.29,1.29,0,0,0,.5-.17A1.61,1.61,0,0,0,61,94.65a2.05,2.05,0,0,1,.31-2,.74.74,0,0,0,.06-.81ZM44,94.09a10.34,10.34,0,0,1-1.61.15,5.87,5.87,0,0,1-1.19-.1c-.14,0-.16-.06-.17-.18s0-.06,0-.06l.06,0,1.15-.26a15.59,15.59,0,0,1,3.2-.51V93h.15v-.12l0-.17-.17,0a3.16,3.16,0,0,1-1.31-.56l-.47-.26A6.68,6.68,0,0,1,40.81,89,7.49,7.49,0,0,0,40,87.94l-.34-.43-.19-.23-.09.28-.16.49a12.78,12.78,0,0,1-.43,1.28,2.42,2.42,0,0,0,0,2.27.66.66,0,0,1-.17.81l-.73.8c-.16.19-.33.38-.5.56l0,0a.48.48,0,0,0-.16.46c0,.11,0,.23.06.35a1.13,1.13,0,0,0,.47,1s0,0,0,.16v2.14a.52.52,0,0,0,.17.47,3,3,0,0,0,1.21.41h.08c.17-.06.25-.25.31-.39a1.05,1.05,0,0,1,.08-.18.35.35,0,0,0,.08-.13l0-.06a10.55,10.55,0,0,0,1-.69,6.14,6.14,0,0,1,1.35-.83c.54-.23,1.08-.5,1.59-.75a12.1,12.1,0,0,1,3.55-1.34l1-.15-1-.16a10,10,0,0,0-3.31,0Zm7.92-.59a.35.35,0,0,0-.12-.3.32.32,0,0,0-.28-.08h-.13a5.06,5.06,0,0,1-1.1.1H49a.39.39,0,0,0-.11,0c-.13,0-.2.1-.22.26a.49.49,0,0,0,.4.54,5.15,5.15,0,0,0,1.18.14h0a8.69,8.69,0,0,0,1.23-.09.41.41,0,0,0,.38-.51V93.5ZM83.91,43a.54.54,0,0,0,.41-.57c.05-.78.11-1.57.19-2.36.08-1.06.18-2.13.28-3.26l-.19,0c-6.25,1.83-12.93,3.54-19.18,5.36-.31.1,0,.59.1.82,1,1.72,2,3.31,3,5,.08.15.15.22.26.24a2.7,2.7,0,0,0,.29-.15q7.41-2.6,14.84-5.16ZM83,38.54c.67,0,1,.35,1,1.06a1.32,1.32,0,0,1-1.17,1.34,1.17,1.17,0,0,1-1.12-1.13A1.3,1.3,0,0,1,83,38.53ZM17.24,50.62l3,.42,4.57.62h.08c.18,0,.21-.17.26-.33.4-1.34.8-2.68,1.22-4,.1-.28,0-.37-.26-.45l-8.54-2.24L9,42.39a.47.47,0,0,0-.17,0,.18.18,0,0,0-.17.08l0,.06a.78.78,0,0,0,0,.14Q8.32,45.79,8,48.93c0,.26,0,.38.22.44l.16,0Zm-6.87-5.56a1.35,1.35,0,0,1,1-.25,1.08,1.08,0,0,1,1.19.82A2,2,0,0,1,12.1,48a1.28,1.28,0,0,1-1.68,0,2.06,2.06,0,0,1-.05-2.93Z"/><path class="cls-7" d="M83,38.54a1.31,1.31,0,0,0-1.26,1.29,1.17,1.17,0,0,0,1.13,1.11A1.35,1.35,0,0,0,84,39.6C84,38.88,83.65,38.53,83,38.54ZM11.34,44.8a1.4,1.4,0,0,0-1,.25A2,2,0,0,0,10.44,48a1.26,1.26,0,0,0,1.67,0,2,2,0,0,0,.42-2.36,1.1,1.1,0,0,0-1.2-.82Z"/><path class="cls-7" d="M42.45,108a.79.79,0,0,1-.28-.5,4.53,4.53,0,0,1,.08-1.68,16.2,16.2,0,0,0,.45-3.25,1.06,1.06,0,0,0-.53-1c-.48-.23-.83,0-1.16.32a17.16,17.16,0,0,0-1.71,1.91l-1.62,2c-.09.11-.18.31-.35.22s-.09-.24-.07-.37c0-.49.11-1,.16-1.46a7.11,7.11,0,0,0,0-1.9c-.13-.76-.68-1-1.3-.5a4,4,0,0,0-.41.41A14.62,14.62,0,0,0,34.44,104a43.58,43.58,0,0,1-3.09,4.53c-.23.27-.46.52-.66.8a.91.91,0,0,0-.1,1,.82.82,0,0,0,.82.38c.37,0,.55-.28.74-.54l2.77-3.75c0-.06.07-.19.23-.15a3.93,3.93,0,0,0-.06.48,6.52,6.52,0,0,0,0,1.82.88.88,0,0,0,1.35.67,3.85,3.85,0,0,0,.89-.67A16.87,16.87,0,0,0,38.75,107l1.53-2a4.17,4.17,0,0,1,.08,1.48,9.8,9.8,0,0,0,0,2.48.93.93,0,0,0,.82.86,1.91,1.91,0,0,0,1.23-.31.91.91,0,0,0,.09-1.51Zm38.1.2a1,1,0,0,1-.66-.3,9.75,9.75,0,0,1-1.6-1.74c-.39-.53-.41-.53.12-.89a3.26,3.26,0,0,0,1.41-3.13,1.63,1.63,0,0,0-1.49-1.67,2.32,2.32,0,0,0-1.91.63c-.13.09-.2.21-.41.08a.92.92,0,0,0-1.3.17,1.77,1.77,0,0,0-.46.82c-.55,2.22-1.11,4.43-1.64,6.66-.18.74.21,1.12,1,1s1-.5,1.17-1.4a18.27,18.27,0,0,1,.48-2.63l1.91,2.38A6,6,0,0,0,79.33,110a1.44,1.44,0,0,0,1.68-.32.85.85,0,0,0,.24-.91.7.7,0,0,0-.7-.55Zm-2.67-5.15a1.8,1.8,0,0,1-.31.58,5.13,5.13,0,0,1-2.19,1.55,6.76,6.76,0,0,1,.49-1.87,1.66,1.66,0,0,1,1.38-1c.52,0,.77.28.63.78Zm-46.77-2.41c-.29-.11-.62-.13-.76.25-.08.23-.23.2-.4.18A3.31,3.31,0,0,0,27,102a7.57,7.57,0,0,0-2.43,6c.06,1.57,1,2.33,2.51,2a7.52,7.52,0,0,0,5.52-7,2.92,2.92,0,0,0-1.5-2.37Zm-.42,3.44a5.48,5.48,0,0,1-1.86,3.6,2.57,2.57,0,0,1-1.43.62.93.93,0,0,1-1.11-1,6.62,6.62,0,0,1,1.42-3.78,2,2,0,0,1,2.34-.56c.49.19.66.43.64,1.15Zm38-.86a4.29,4.29,0,0,1,1.08,0,9.46,9.46,0,0,0,2.8-.33,1.49,1.49,0,0,0,.84-.57c.31-.48.19-.79-.36-.81a20.84,20.84,0,0,0-3.62,0,1.7,1.7,0,0,0-1.67,1.08.18.18,0,0,1-.1.12,2,2,0,0,0-1.34,1.58c-.46,1.52-.88,3.06-1.31,4.59a.64.64,0,0,0,.35.8.91.91,0,0,0,.76.07,14.21,14.21,0,0,1,4.34-.63A1.15,1.15,0,0,0,71,109a1.07,1.07,0,0,0,.52-1.07c-.06-.39-.38-.51-.72-.56a6.43,6.43,0,0,0-.78-.08,17.83,17.83,0,0,0-2.72.23c.14-1,.21-1.06,1.16-1.06a5.32,5.32,0,0,0,2.09-.32,1.15,1.15,0,0,0,.77-1c0-.34-.11-.54-.46-.55a7.66,7.66,0,0,0-.83,0l-2,.18a5,5,0,0,1,.27-.6c.19-.28,0-.78.38-.92Zm-44.85-1.89a3.37,3.37,0,0,0-1.52-.51,4.12,4.12,0,0,0-2.69,1,9,9,0,0,0-2.84,5,2.77,2.77,0,0,0,.33,2.12,1.1,1.1,0,0,0,1.29.6,13.7,13.7,0,0,0,3.82-1.35,3.66,3.66,0,0,0,1-.74,1.26,1.26,0,0,0,.37-.89c0-.33-.15-.44-.45-.46a2.22,2.22,0,0,0-.85.21c-.91.32-1.8.72-2.74,1-.47.11-.62,0-.72-.47a1.4,1.4,0,0,1,0-.54,8.06,8.06,0,0,1,.83-2.12A3.62,3.62,0,0,1,20.72,103a1.71,1.71,0,0,1,1.94-.18.62.62,0,0,0,.67-.05,1.57,1.57,0,0,0,.66-.89.4.4,0,0,0-.19-.51Zm40.82.49a3,3,0,0,0-4.08.22,1.84,1.84,0,0,0-.38,2.32,13,13,0,0,0,1.23,1.83c.31.41.66.82.95,1.25s.11.55-.25.67a.8.8,0,0,1-.61,0,4.65,4.65,0,0,1-1.65-1,1.09,1.09,0,0,1-.36-.56.55.55,0,0,0-.55-.5c-.36,0-.69,0-.9.35a1.26,1.26,0,0,0,.38,1.73,6.84,6.84,0,0,0,4.11,1.67,1.69,1.69,0,0,0,1.7-2.29,6.32,6.32,0,0,0-.83-1.39c-.54-.7-1.08-1.37-1.58-2.09-.39-.55-.21-1,.43-1.16a1.63,1.63,0,0,1,1.59.35c.57.44,1.06.21,1.19-.51a.87.87,0,0,0-.4-.86ZM83.19,44.32c.61-.21,1.22-.47,1.84-.67a.58.58,0,0,0,.46-.61c.21-2.67.41-5.35.62-8,0-.37,0-.44-.41-.33-2,.64-4,1.24-6,1.86-.62.19-.63.19-.9-.41-1-2.28-1.81-4.66-2.64-7a1.72,1.72,0,0,1,0-1.39,6.79,6.79,0,0,0,.08-2.5.69.69,0,0,1,0-.13,40.59,40.59,0,0,0-1.12-6.82,26.64,26.64,0,0,0-2.2-5.59c-1-1.91-2.08-3.79-3.25-5.62a4.39,4.39,0,0,0-1.91-1.88,3,3,0,0,0-1-.21.89.89,0,0,0-.87.41,1.85,1.85,0,0,0-.31,1.89c.84,1.82,1.6,3.66,2.33,5.51a2.59,2.59,0,0,0,.17.3.32.32,0,0,1-.28-.19,30.12,30.12,0,0,0-4.4-3.55,55,55,0,0,0-6.62-3.83,2.63,2.63,0,0,0-.94-.29l-1.69-.18a1.29,1.29,0,0,0-1.57,1.29c0,.47-.2.58-.59.61a1.22,1.22,0,0,0-.87.85,3.09,3.09,0,0,0,1,2.73c2,1.82,3.85,3.71,5.74,5.61l.06,0a.33.33,0,0,1,.13.17H58a.24.24,0,0,1-.16-.09l0,0c-.28-.17-.56-.32-.83-.49-1.32-.88-2.62-1.78-4-2.64a4.1,4.1,0,0,0-2-.75A2,2,0,0,0,49.3,13a1.22,1.22,0,0,0-.39,1.11,2,2,0,0,0,1,1.37,35.81,35.81,0,0,1,6,5.17,6,6,0,0,0,.51.5,5.1,5.1,0,0,1,1.15,1.56c.15.27.09.33-.19.33a26.78,26.78,0,0,0-5.49.9,2,2,0,0,0-1.73,1.24c-.28.92-.42,1.44.71,1.72a43,43,0,0,1,6.55,2.28,2.18,2.18,0,0,1,.52.33,15.25,15.25,0,0,0,1.59,1.34,17.33,17.33,0,0,0,5.38,2.57c.23.05.44.17.66.22a.51.51,0,0,1,.41.41,1.75,1.75,0,0,0,1.34,1.45,2.24,2.24,0,0,1,.27.13.65.65,0,0,1,.42.47c.29,1.06.6,2.11.92,3.15.12.35,0,.44-.3.54q-2.46.72-4.9,1.47c-.58.18-.59.19-.29.72l4,7.2c.55,1,.58,1,1.6.49.1,0,.25-.24.34-.06s.27.38.11.56A22.36,22.36,0,0,0,68.23,52a.42.42,0,0,0,0,.52c.45.74.89,1.47,1.32,2.21.06.09.15.2.13.26-.17.54-.36,1.08-.54,1.62a11.35,11.35,0,0,0-1.39-3.15c-.8-1.27-1.81-2.39-2.73-3.58-.15-.18-.32-.33-.49-.5a14.18,14.18,0,0,0-3.07-2.11,4.77,4.77,0,0,0-1.5-.56,9.58,9.58,0,0,0-4.93,0,.55.55,0,0,1-.72-.26A7.57,7.57,0,0,0,53,44.87a14.44,14.44,0,0,0-4.34-2.57,13.07,13.07,0,0,0-3.82-.74,17.23,17.23,0,0,0-2,.08,10.57,10.57,0,0,0-5,1.29c-.3.18-.65.29-1,.47a18.83,18.83,0,0,0-4.47,3c-1.37,1.34-2.73,2.68-4,4.15A26.7,26.7,0,0,0,25,56.13a.77.77,0,0,1-.31.43c-.18-1.13-.36-2.2-.53-3.28,0-.2.09-.19.24-.17.39,0,.77.06,1.16.12s.45,0,.53-.35.2-.91.29-1.38c.36-1.74.88-3.44,1.33-5.15.09-.33,0-.44-.3-.53-1.68-.4-3.36-.84-5.05-1.24-.31-.08-.46-.19-.36-.53a38.69,38.69,0,0,1,1.06-4,.73.73,0,0,1,.25-.38,1.48,1.48,0,0,0,.7-1.33.91.91,0,0,1,.62-.95c.8-.38,1.57-.82,2.33-1.26a3.7,3.7,0,0,0,1.44-1.47,82.85,82.85,0,0,1,4.31-8,5.32,5.32,0,0,1,.45-.65,40.87,40.87,0,0,1,3.4-3.44,1.53,1.53,0,0,0,.5-1.26A2,2,0,0,0,36.36,20a1.39,1.39,0,0,0-1.23-.65,1.37,1.37,0,0,1-.39-.06c.08-.17.22-.21.34-.28l4.47-2.9c1.81-1.16,3.61-2.34,5.43-3.5.23-.15.33-.26.08-.49A1,1,0,0,1,44.9,12c-.37-.43-.37-.43-.88-.12L28.86,21.26c-.45.27-.45.27-.67-.22A35.3,35.3,0,0,1,27,17.47a.48.48,0,0,1,.2-.6c1.27-1,2.43-2.16,3.61-3.27A2.69,2.69,0,0,0,31.67,12c.1-.75-.4-1.14-1.08-.87a6.68,6.68,0,0,0-1,.47,45.86,45.86,0,0,1-9.46,3.73c-.19,0-.36.12-.52-.09a6.12,6.12,0,0,0-1.23-.91.3.3,0,0,0-.27-.07,1.86,1.86,0,0,0-1.18.65c-.69,1-1.57,1.94-2.23,3-.75,1.24-1.47,2.48-2.31,3.65-.16.22-.23.25-.38,0-.92-1.64-1.87-3.28-2.8-4.92a12,12,0,0,0-1-1.49,1.67,1.67,0,0,0-1.58-.7c-.11,0-.26,0-.3.16A4.53,4.53,0,0,0,6.13,16a26.7,26.7,0,0,0,.65,3.55c.51,2,1.08,4,1.68,6s1.24,3.88,1.87,5.83c.05.17.15.31-.08.45s-.78.26-.83.56.22.66.35,1l0,.08c.11.25.16.63.35.72s.49-.22.72-.36.28-.09.38.13c.55,1.29,1.11,2.57,1.67,3.86a.79.79,0,0,1,0,.6,17.56,17.56,0,0,0-.85,3.18c0,.31-.17.31-.4.25L8,40.94c-.54-.14-.54-.14-.61.41v0q-.39,4.4-.8,8.79c0,.26,0,.36.3.4.86.1,1.7.24,2.55.36.15,0,.29,0,.25.27-.18,1-.34,2-.55,3a.79.79,0,0,0,.15.72l.88,1.17a.84.84,0,0,1,.16.92.91.91,0,0,0-.14.52c0,1.82,0,3.65.11,5.48,0,.89,0,1.78.06,2.67,0,2.36.18,4.7.26,7.06.05,1.16-.15,2.3-.1,3.45,0,.29.07.45.37.54.7.22,1.38.51,2.09.73a1.27,1.27,0,0,1,.81.69,1.89,1.89,0,0,1,.17,1,.75.75,0,0,0,.36.69c1.09.78,2.17,1.58,3.26,2.39,2.86,2.11,5.73,4.24,8.6,6.34.27.2.33.36.17.65s-.24.59-.39.87a.39.39,0,0,0,.14.59,12,12,0,0,1,1,.82.88.88,0,0,1,.22.92c-.07.22-.38,0-.59,0s-.27,0-.41-.06c-1.37-.22-2.72-.57-4.1-.69a61.73,61.73,0,0,0-6.66-.31c-.11,0-.29-.1-.32.13s-.08.39.14.52a2,2,0,0,0,.33.16,20.49,20.49,0,0,1,3.56,1.72A15.86,15.86,0,0,0,21.62,95c.15,0,.3.17.48,0l-3.67-2.93a.53.53,0,0,1,.43-.06,26.41,26.41,0,0,1,4.35.66q4.71,1.13,9.35,2.52a10.53,10.53,0,0,1,3,1.07.58.58,0,0,1,.34.57c.05.06.11.15,0,.2s-.16,0-.22-.1l-2.15-.19a48.32,48.32,0,0,0-6.13-.43c-1.55.05-3.1-.06-4.63.05-2.17.15-4.35.44-6.52.67-.11,0-.27,0-.27.11a.35.35,0,0,0,.26.38,2,2,0,0,0,.5.06c1.09,0,2.18,0,3.28,0,2.73.06,5.47,0,8.2.18,1,.09,2,.05,2.94.22,4.54.85,9.05,1.74,13.56,2.72a6.6,6.6,0,0,1,1.58.46c-.24.22-.56.28-.7.6-1,2.23-1.59,4.58-2.33,6.88a.78.78,0,0,0,.53,1,1.22,1.22,0,0,0,1.55-1c.08-.48.17-1,.23-1.45a.3.3,0,0,1,.23-.29l1.74-.71a7.14,7.14,0,0,0,2.32-1.43,2.86,2.86,0,0,0,1.1-2.07.66.66,0,0,1,.28-.6A24.23,24.23,0,0,0,54,99.69a23.59,23.59,0,0,1,2.65-2.34c.1-.09.18-.22.36-.16l2.46,1c-1.65,1-3.21,2-4.77,2.9a.84.84,0,0,1-.23.09,3.6,3.6,0,0,0-1.49.89A7.59,7.59,0,0,0,50.54,108c.06,1.59,1,2.34,2.52,2a7.52,7.52,0,0,0,5.42-6.07,2.65,2.65,0,0,0-.33-2.26c-.25-.3-.51-.59-.78-.86a1.62,1.62,0,0,0,.16-.12,58.57,58.57,0,0,1,10.91-4.72c4.58-1.57,9.25-2.83,13.93-4l-.32-.08-.91.09a21.74,21.74,0,0,0-3.84.59l-.08,0a1,1,0,0,1-.4.07H76.6c.28-.27,1.11-1.16,1.33-1.1h0s.08-.1.08-.1a.43.43,0,0,1,.33-.22,3,3,0,0,1,.87-.82A3.48,3.48,0,0,1,80,90h0c.71,0,1.4-.85,2.14-1.15,0,0,0,0-.06-.08a14.44,14.44,0,0,0-3.11.7c-2.17.8-4.4,1.43-6.52,2.36-3.27,1.42-6.53,2.85-9.67,4.56l-.34.15c-.09-.76-.16-1.49-.24-2.21,0-.15,0-.22.18-.29,2.78-1.46,5.57-2.92,8.48-4.13,2.39-1,4.76-2.07,7.15-3,0,0,0,0,0,0h0a.08.08,0,0,1,0,.11l0,0h0a15.35,15.35,0,0,0-1.64,2.91.26.26,0,0,0,.3-.08c.49-.53,1-1,1.47-1.57a18.52,18.52,0,0,1,3.1-2.83c.08-.05.2-.09.15-.21s-.2-.06-.3,0c-1.09.22-2.17.43-3.25.68-.36.09-.35,0-.35-.29,0-.88.11-1.72.15-2.59a2.79,2.79,0,0,1,.25-1.09c.43-1,.87-2,1.31-3a6.67,6.67,0,0,0,.44-1.57c.13-.84.24-1.7.32-2.55.14-1.32.61-2.55.83-3.85A24.77,24.77,0,0,1,81.88,66c.56-1.39,1.08-2.79,1.64-4.18a35.85,35.85,0,0,0,2.22-5.67,2.87,2.87,0,0,0,0-2,8.29,8.29,0,0,1-.36-1.2,1.62,1.62,0,0,1,0-.9,4.3,4.3,0,0,0-.28-3.15c-.15-.28,0-.44.19-.61.39-.41.42-.59.08-1s-.78-1-1.2-1.44-.67-.77-1-1.15c-.25-.15-.22-.24.05-.34ZM54.73,107.71a2.54,2.54,0,0,1-1.43.6.92.92,0,0,1-1.09-1,6.61,6.61,0,0,1,1.46-3.85,2,2,0,0,1,2.27-.54c.5.21.66.45.65,1.19a5.49,5.49,0,0,1-1.87,3.61Zm14.19-73.1c-.11-.29-.24-.45-.57-.38s-.6-.07-.77-.42a4.36,4.36,0,0,0-1-1.58,4.87,4.87,0,0,0-1.78-.51c-.45-.11-.9-.25-1.37-.32a6.4,6.4,0,0,1-2.7-1.21c-1.33-1-2.7-1.89-4.11-2.76a7.65,7.65,0,0,1-1.33-.27c-1.23-.25-2.44-.51-3.67-.75-.3-.05-.35-.27-.38-.47a.62.62,0,0,1,.29-.64A3.52,3.52,0,0,1,52.86,25a41.94,41.94,0,0,1,5.92-.58,5.37,5.37,0,0,1,1.38.28.78.78,0,0,0,.73-.12c1-.63,1.91-1.23,2.86-1.86.15-.09.43-.16.31-.41l-.06-.1a.32.32,0,0,0-.19-.05h-.26a5.1,5.1,0,0,0-2.93.88,1.25,1.25,0,0,1-1.37-.24c-1.5-2.27-3.63-3.91-5.65-5.68-.9-.78-1.77-1.59-2.73-2.31a.73.73,0,0,1-.18-.88c.2-.31.48-.17.73-.06a13.56,13.56,0,0,1,2.33,1.29,83.32,83.32,0,0,0,7.81,4.79l.22.11c.4.14.61,0,.55-.46a1.23,1.23,0,0,0-.28-.6c-2.14-2.52-4.4-4.95-6.63-7.4a18.51,18.51,0,0,0-1.53-1.41,3.73,3.73,0,0,1-1-1.23.71.71,0,0,1,.1-.84.43.43,0,0,1,.61-.1,12.13,12.13,0,0,1,2.12,1.29l3.54,2.66,3.55,2.65.28.22c.22.21.41.42.62.63l.13.13a1.6,1.6,0,0,0,.26.26c.25.15.5.28.75,0a.36.36,0,0,0,.14-.24.27.27,0,0,0,0-.09.11.11,0,0,0,0,0,.77.77,0,0,0-.19-.31L64,14.33A18.93,18.93,0,0,0,62.65,13C61.12,11.74,59.54,10.5,58,9.3a23.79,23.79,0,0,0-2.63-1.54,3.35,3.35,0,0,1-.76-.69.65.65,0,0,1-.1-.67c.09-.24.32-.23.53-.25a1.66,1.66,0,0,1,.87.22c2,1,4.05,2.09,6,3.25l.47.3c1.09.7,2.13,1.49,3.16,2.29a9.32,9.32,0,0,1,1.25,1.45.38.38,0,0,1-.11.55,1.52,1.52,0,0,1-.38.24c-.14.1-.32.18-.27.38s.25.22.41.25a1.09,1.09,0,0,0,.69-.06c.74-.3,1.37.22,1.85.73.12.14.18.42.4.33s.28-.36.26-.6a13,13,0,0,0-.37-2A31.58,31.58,0,0,0,67.39,8.8c-.23-.57-.49-1.13-.72-1.68a.81.81,0,0,1,.22-.81c.13-.18.35,0,.53.06a2.91,2.91,0,0,1,1.37,1.46c.36.67.79,1.29,1.16,1.93a36.13,36.13,0,0,1,1.92,3.35A31.27,31.27,0,0,1,74,18.3a42.41,42.41,0,0,1,1.11,4.9c.07.63,0,1.25,0,1.86a6.42,6.42,0,0,1-.54,3.51,1.07,1.07,0,0,0,.05.92c1.11,2.35,2,4.77,2.95,7.2.12.32.06.45-.26.54-2.12.63-4.25,1.27-6.37,1.92-.32.09-.41,0-.5-.27q-.81-2.12-1.56-4.26ZM55.57,48a4.21,4.21,0,0,1,2.65-.13l.06,0a22.89,22.89,0,0,1,3.39,1.14,1.15,1.15,0,0,1,.5.34,8.63,8.63,0,0,1,1.89,1.78c.84,1.08,1.67,2.17,2.46,3.41l-.15-.06h0a4,4,0,0,1-.81-.45,30.21,30.21,0,0,0-3-1.57,7.35,7.35,0,0,0-1.45-.44,15,15,0,0,0-4-.18c-.38,0-.75,0-1.13,0s-.39-.12-.39-.4a10,10,0,0,0-.27-3.08c-.06-.22.06-.3.25-.36Zm-.27,7.63,0-.08a.41.41,0,0,1,0-.07s0,0,0-.07a.64.64,0,0,1,0-.07s0,0,0-.07v-.14s0,0,0-.06V55s0-.05,0-.07v-.13s0-.06,0-.08a.17.17,0,0,1,0-.07V53.43c0-.36.12-.5.48-.49s.71,0,1.07,0l.33,0,.54,0a9.43,9.43,0,0,1,1.68.11,4.42,4.42,0,0,1,2.42.71,10.15,10.15,0,0,1,1.22.64c1,.58,2,1.19,2.92,1.77a1.74,1.74,0,0,1,.52.49l1,1.38c0,.07.14.16.06.25a.16.16,0,0,1-.08.06h0a.38.38,0,0,1-.23-.06l-1.31-.72a20.82,20.82,0,0,0-4.78-1.9l-.44-.12a9.2,9.2,0,0,0-1.42-.34l-.66-.15s0,.05.07.11l0,.06a.7.7,0,0,0,.19.15l.08,0c1,.51,2.7.83,3.94,1.4h0l-.06,0-.41-.18-.12-.06,0,0,0,0,.12,0,.41.19,0,0h0l.28.14a13.45,13.45,0,0,1,1.93,1.28l1.19.91a8.8,8.8,0,0,1,3.39,5.15c0,.06,0,.12,0,.19l0,.06a.59.59,0,0,1,.07.43s0,.06,0,.09c0,.31-.26.18-.4.18A10.56,10.56,0,0,1,67,64.74h0c-.22-.06-.51-.16-.72-.23-.93-.33-1.81-.72-2.71-1a12.05,12.05,0,0,1-2.91-1.82A33.08,33.08,0,0,1,56.22,58a1.45,1.45,0,0,1-.35-.47c-.1-.22-.19-.45-.28-.67l-.16-.42c0-.08-.06-.17-.1-.26v0a.07.07,0,0,1,0-.05h0l0,0a.9.9,0,0,1,0-.46ZM62,56.3l-.09,0h0l.1,0Zm-.13-.06h0l-.21-.07-.08,0,.08,0,.21.07Zm-2.11-.69-.06,0Zm-.54-.17c0-.08,0-.11,0-.12a.27.27,0,0,0,.12,0h0C59.27,55.33,59.2,55.32,59.18,55.38Zm-4.66,2.31c0-.1.08-.16.14-.14h0a.37.37,0,0,1,.1.11,6.77,6.77,0,0,0,1.32,1.76c.55.53,1.14,1,1.71,1.53q1.79,1.59,3.61,3.14a6.66,6.66,0,0,0,2.73,1.27,62.88,62.88,0,0,0,6.93,1.12,3.11,3.11,0,0,1,1.65.69h0l.1.08a34,34,0,0,0-8.13.09,4.34,4.34,0,0,1-1.48-.11,24,24,0,0,1-3.91-1.4,13.4,13.4,0,0,1-3.8-2.59c-.08-.08-.17-.15-.25-.24a4.22,4.22,0,0,1-.89-1.23v-.05a4.73,4.73,0,0,1-.08-3.12C54.32,58.3,54.42,58,54.52,57.69ZM66,76.22h-.27c-.17,0-.34,0-.5.06a.38.38,0,0,0-.38.25c-.08.18-.17.32-.25.49a.2.2,0,0,0,0,.08,6.79,6.79,0,0,1-1.39,2.11c-.13.14-.27.26-.4.39-.36.32-.72.62-1.1.9a8.36,8.36,0,0,1-2.07,1l-.15.07-.15.06-.09,0-.13,0c-.16.07-.28.16-.2.41a.48.48,0,0,0,.52.34h.18a2.9,2.9,0,0,0,.65-.14c.22-.08.42-.17.65-.27l.45-.18a11.75,11.75,0,0,1-.37,1.5l-.1.24c-.12.28-.25.56-.38.84s-.18.37-.28.55a16.56,16.56,0,0,1-1.79,2.89c-.14.18-.29.36-.45.53a7.87,7.87,0,0,1-1.11,1l-.45.32c-.31.19-.61.37-.93.54s-.5.25-.75.37l-.28.13-.24.09a1.34,1.34,0,0,1-.18.07c-.18.08-.36.14-.54.21l-.17,0q-.28.11-.57.18c-.59.18-1.19.33-1.8.46l-.72.14h-.08L49.4,92l-.77.11a9.52,9.52,0,0,1-2.56-.08L46,92l-.13,0a3.18,3.18,0,0,1-.64-.26c-.27-.16-.53-.32-.8-.45L43.83,91c-.24-.15-.49-.3-.71-.47a2.78,2.78,0,0,1-1-1.22c-.12-.29-.26-.58-.41-.86l-.13-.23a11.84,11.84,0,0,0-1.22-1.62c-.18-.21-.36-.42-.55-.62l-.27-.31c-.37-.41-.75-.82-1.15-1.22l-.29-.29a14.36,14.36,0,0,0-1.27-1.09,4.15,4.15,0,0,0-.34-.24,10.84,10.84,0,0,0-1.07-.69,2.26,2.26,0,0,1-.26-.16l-.27-.17a7,7,0,0,1-2.73-3.27.36.36,0,0,0,0-.09.92.92,0,0,0-1-.55A2.74,2.74,0,0,1,30,77.67h0a1.79,1.79,0,0,1-.58-.37l-.11-.07a2.51,2.51,0,0,1-.26-.4,22.21,22.21,0,0,1-1.7-2.9v0l0-.06v0c-.1-.29-.21-.58-.32-.86l-.16-.38a2.06,2.06,0,0,1-.07-.46,1.55,1.55,0,0,1,0-.22l0-.14,0-.06a.5.5,0,0,1,.05-.13,2.13,2.13,0,0,1,.56-.62l.3-.23.61-.4c.32-.2.64-.38,1-.55a18.58,18.58,0,0,1,3.78-1.38l.23,0a3.55,3.55,0,0,1,.47-.06c.15,0,.31,0,.46,0H35l1.59-.08L39,68.06l2.39-.25a15.45,15.45,0,0,0,4.14-1l.81-.38c.16-.08.33-.15.49-.24s.18-.09.27-.15c.64-.34,1.27-.66,1.89-1a.36.36,0,0,1,.24-.15h0v0a.24.24,0,0,1-.09.15l-.09.06a17.17,17.17,0,0,1-2.19,2,2,2,0,0,0-.22.2l-.73.6a9,9,0,0,0,2.63-.35,7.34,7.34,0,0,0,3.22-1.92,8.29,8.29,0,0,0,.61-.72,10.27,10.27,0,0,0,1.23-2.13,7.16,7.16,0,0,0,1.65,2.53l.12.17a1.92,1.92,0,0,1,.13.17,1,1,0,0,0,.27.26A1.56,1.56,0,0,0,56,66l.2.14.09.08c.46.36.93.72,1.41,1.07.32.23.63.45,1,.67l1.44,1a15.57,15.57,0,0,0,2.06,1.17l.54.24c.55.23,1.11.44,1.67.62l.1,0a9.7,9.7,0,0,0,1.1.17l.4,0a.77.77,0,0,1,.26.1,1.6,1.6,0,0,1,.3.23,2,2,0,0,1,.66,1,.41.41,0,0,1,0,.11l0,0c0,.08-.1.14-.14.22s-.27.44-.38.67l0,.12a1.4,1.4,0,0,0,0,1.15,7.57,7.57,0,0,0,1.29-1.66,4.9,4.9,0,0,0,.24-.52,2,2,0,0,0,.14-.37c0-.12,0-.25,0-.37s-.11-.31,0-.39,0,0,0,0a.09.09,0,0,1,.06,0l.12,0h.24a2.21,2.21,0,0,1,.62.09c.12,0,.08.2.07.32v0A3.56,3.56,0,0,1,69.06,73l-.11.24a7.57,7.57,0,0,1-.85,1.65A2.74,2.74,0,0,1,66,76.22Zm1.16,2c-.14.74-.25,1.46-.38,2.21a1.87,1.87,0,0,1-.21.73l0-.19s0,.06-.06.1a24.59,24.59,0,0,1-.33-3.1c0-.24.15-.29.3-.35s.55-.35.71-.23a.18.18,0,0,1,0,.07s0,0,0,0c.19.14,0,.48-.08.74ZM51.5,93.91a8.12,8.12,0,0,1-1.21.1,5.8,5.8,0,0,1-1.23-.14.34.34,0,0,1-.28-.39c0-.11.1-.11.18-.11a.49.49,0,0,1,.17,0h1.16a4.54,4.54,0,0,0,1-.11.56.56,0,0,1,.18,0c.14,0,.25,0,.25.24s.05.35-.26.4ZM31.79,84.42A25.63,25.63,0,0,0,32,81.78c0-.18.12-.16.22-.06s.33.33.5.49l.06.06a.21.21,0,0,1,.06.26q-.49,1-1,2l-.1,0s0,0,0,0Zm34-14.65a8.33,8.33,0,0,0-1.12-.11,4,4,0,0,1-2-.71h.07l-.16-.08.33,0,.37.06a9.79,9.79,0,0,0,3.1-.19,4.7,4.7,0,0,1,2.89.78h-.06l.14.08a14.31,14.31,0,0,1-3.58.13ZM26.23,56.25a18.24,18.24,0,0,1,1.15-1.91c.21-.32.42-.62.64-.92l.34-.44c.35-.44.69-.88,1.05-1.3s.72-.84,1.09-1.27l1.1-1.26a5.15,5.15,0,0,1,.5-.43l.12-.13c.34-.3.65-.61,1.05-.93l.06,0,.29-.27a22.75,22.75,0,0,1,3.51-2.57l.38-.23.49-.21.12-.05.77-.28.51-.16c.62-.18,1.23-.33,1.84-.52a10.87,10.87,0,0,1,3.44-.51h.5a7.41,7.41,0,0,1,2.5.73l1,.48.25.13a6.86,6.86,0,0,1,.76.4l.5.28c.16.11.33.21.47.32a10.92,10.92,0,0,1,.92.73,7.36,7.36,0,0,1,2,3.17,12.18,12.18,0,0,1,.56,2.72,7.55,7.55,0,0,1-.42,2.61c0,.13-.08.16-.12.15s-.1-.1-.15-.16c-.31-.37-.64-.73-.95-1.1a9.22,9.22,0,0,0-4.59-3,17.83,17.83,0,0,0-4.38-.68,17,17,0,0,0-3.54.4c-.93.18-1.87.33-2.78.5a7.76,7.76,0,0,0-1.71.62c-.26.12-.52.24-.79.34l-.09,0A22.11,22.11,0,0,0,30.2,54a6.45,6.45,0,0,0-1.07,1l0,0-.29.28c-.67.64-1.32,1.3-2,1.89a9.48,9.48,0,0,1-1.19,1.18,6.38,6.38,0,0,1,.65-2.09Zm-.3,4.24a2.15,2.15,0,0,1,.18-.24A53.22,53.22,0,0,1,30.62,56a22.42,22.42,0,0,1,9.05-4.5,12.39,12.39,0,0,1,2.51-.3c1,0,2,0,2.91-.07a9.12,9.12,0,0,1,5.14,1.42,9.22,9.22,0,0,1,1.59,1.25l.07.07a9.17,9.17,0,0,1,1.41,1.81,2.46,2.46,0,0,1,.14,1.81,8.4,8.4,0,0,1-2.61,4.35,23.58,23.58,0,0,1-4,2.86,15,15,0,0,1-6.34,2.1c-2.78.41-5.6.45-8.39.82-1,.13-2,.21-3.06.39a4.71,4.71,0,0,0-3,1.82,8.91,8.91,0,0,0-.71,1.32.88.88,0,0,1-.05-.15,2.33,2.33,0,0,1,.16-1.58A5,5,0,0,1,27.81,67c1.84-1,3.88-1.15,5.84-1.65,1.58-.4,3.21-.63,4.79-1.06a32.38,32.38,0,0,0,6.28-2.43,7.63,7.63,0,0,0,2.88-2.13,3.22,3.22,0,0,0,.53-2.46c0-.15-.06-.22-.12-.23s-.12,0-.22.11a21.12,21.12,0,0,1-2.52,2A14.77,14.77,0,0,1,40.7,61a45.48,45.48,0,0,1-7.77,1.37,21.22,21.22,0,0,0-5.46,1.07,11.24,11.24,0,0,0-4.23,2.15c-.15.14-.33.25-.57.44l0-.17-.12.08v0l.11-.07a2.51,2.51,0,0,1,.37-.88q1.41-2.25,2.84-4.5Zm10.55,2.78,2.31-.38.4-.08a5.53,5.53,0,0,1-1.51.48c-2.47.61-5,1-7.48,1.44a11.5,11.5,0,0,0-4.87,2.15,2.53,2.53,0,0,1-.27.18c-.12.08-.17.06-.19,0a.19.19,0,0,1,0-.08,1,1,0,0,1,.73-1.21c.79-.36,1.58-.74,2.37-1.11a10.5,10.5,0,0,1,3.27-.74c1.75-.19,3.5-.41,5.25-.61Zm-.09-.09h0Zm-9-41.26c0,.12.05.21-.07.29l-1.14.7L26,23a1,1,0,0,0-.14-.22L23.45,20c-.11-.13-.22-.24,0-.36.78-.45,1.37-1.17,2.2-1.55.21-.09.28-.11.39.13.53,1.18.89,2.44,1.33,3.66Zm-6.45-5.56c1.13-.4,2.22-.85,3.33-1.3a45.88,45.88,0,0,0,4.58-2.34c.16-.09.3-.2.46-.28s.25-.25.44-.16.13.34.13.59-.11.49-.35.71C28,15,26.39,16.34,24.77,17.64a13.55,13.55,0,0,1-2.16,1.15c-.15.08-.23,0-.32-.1-.53-.67-1-1.36-1.57-2-.21-.24.07-.23.2-.28ZM11.33,30.83c-1.21-3.74-2.47-7.45-3.48-11.25-.23-.88-.33-1.8-.5-2.7,0-.26.13-.4.3-.5s.25.17.33.27A68.11,68.11,0,0,1,12.12,24c.41.74.86,1.46,1.3,2.19.08.14.15.25.35.18s.19-.23.15-.41a15.81,15.81,0,0,0-.84-2.16.77.77,0,0,1,0-.71c.6-1.25,1.45-2.34,2.11-3.53s1.4-2.07,2-3.17a.92.92,0,0,1,1.47-.21,5.09,5.09,0,0,1,.8,1,17.21,17.21,0,0,0,2.84,3.25c.72.72,1.45,1.42,2.21,2.08.25.21.3.56.44.84a.19.19,0,0,1-.09.25.87.87,0,0,0-.14.08,1.59,1.59,0,0,1-1.95.09A14.4,14.4,0,0,1,19,20.92l-.13-.11c-.51-.38-.53-.36-.75.22s-.38,1.21-.64,1.78c-.1.2.05.41.2.56s.28.44.58.39a.27.27,0,0,0,.25-.25c.07-.34.17-.69.26-1.12A40,40,0,0,0,22.45,25l-1.23.7c-3.14,1.77-6.29,3.53-9.42,5.31-.26.14-.36.17-.47-.15Zm1.1,2.45c-.11-.24-.07-.34.15-.48q5.7-3.52,11.38-7.08c.2-.12.39,0,.58-.09a5.78,5.78,0,0,0,1.89-.72c.05,0,.12-.05.14-.09a3.72,3.72,0,0,1,2.16-1.63A27.18,27.18,0,0,0,34,20.39a.82.82,0,0,1,1,0,.92.92,0,0,1,.35,1,2.39,2.39,0,0,1-.7,1.28,24.12,24.12,0,0,0-3.89,4.81A36.56,36.56,0,0,0,28,32.36a3.19,3.19,0,0,1-.64.91,11.19,11.19,0,0,1-3.77,2.81.78.78,0,0,0-.47.71c0,.26-.11.51-.13.78a2.07,2.07,0,0,1-.84,1.68,1,1,0,0,0-.26.55l-1.21,4a.19.19,0,0,1,0,.08c0,.06,0,.14-.07.17a.73.73,0,0,1-.5-.09c-2-.46-3.91-1-5.86-1.47a5.93,5.93,0,0,0-.73-.16c-.39-.06-.42-.24-.25-.53a8.79,8.79,0,0,1,1.31-3.51.53.53,0,0,0,0-.68c-.84-1.39-1.47-2.9-2.17-4.36ZM8.33,49.41l-.16,0c-.18-.05-.25-.17-.21-.44.22-2.09.45-4.19.67-6.29,0,0,0-.09,0-.13a.19.19,0,0,0,0-.07.18.18,0,0,1,.17-.08l.17,0,8.52,2.25,8.53,2.25c.28.07.36.15.27.44l-1.22,4c-.05.15-.08.33-.25.33a.15.15,0,0,1-.09,0l-4.57-.62-3-.41c-3-.43-5.92-.83-8.9-1.23Zm2.34,4.06a.55.55,0,0,1,0-.38l.07-.18s0,0,0,.06a1.57,1.57,0,0,1-.1.5ZM36.79,93h0c-.1,0-.12.07-.17.11l-.08.06-.17.12a.79.79,0,0,0-.34.38s0,0,0,0,0,.06,0,.06h0v.06c-.1.32-.15.54-.21.69a.66.66,0,0,1,0,.11.43.43,0,0,1,0,.07l0,.06a.19.19,0,0,1-.1,0h0a.69.69,0,0,1-.21,0l-.61-.22-.05,0,0,0-.12,0h0v0h0c-.32-.1-.62-.16-.9-.28s-.35-.11-.53-.19a3.11,3.11,0,0,0-.67-.16c-.61-.21-1.23-.31-1.83-.53h-.19c-.42-.08-.76-.18-1.16-.26a.52.52,0,0,1-.5-.66,4.18,4.18,0,0,0,0-.5c0-.06,0-.08,0-.18s-.16-.23-.24-.37a1.33,1.33,0,0,1-.06-.12c-.06,0-.17-.1-.17-.17s-.06,0-.09-.06c-.33-.31-.23-.72-.19-1.11v-.13l0-.25s0-.08,0-.11c.17-.66.21-1.28-.5-1.67-.08,0-.13-.11-.24-.18v0c-.31-.25-.66-.51-1-.73-.06-.1-.06-.12-.17-.16a6.33,6.33,0,0,1-1.36-1l-.33-.18h0c-.06-.1-.14-.09-.19-.15L24,85c-.54-.45-1.25-.87-1.82-1.39a1.52,1.52,0,0,1-.49-.35v0c-.56-.39-1.11-.77-1.65-1.2h0c-.06,0-.06,0-.17-.1a5.65,5.65,0,0,1-.9-.64.28.28,0,0,0-.26-.11c-.25-.21-.47-.3-.69-.5-.08,0-.15-.11-.26-.17A9.59,9.59,0,0,1,16,79.29l0-.06-.1-.1a.72.72,0,0,1-.11-.19.85.85,0,0,1-.06-.17v.09a14.74,14.74,0,0,1-.95-1.33l0-.06a.14.14,0,0,1,0-.06.53.53,0,0,1,0-.12.49.49,0,0,1,.11-.23s0,0,0-.09a8.36,8.36,0,0,1,.74-1.92V74.9a.45.45,0,0,0,0-.14.42.42,0,0,0,0-.06l0,0-.07-.05h0a.58.58,0,0,0-.25.1.88.88,0,0,0-.24.19L14.8,75l-.07.09s0,0,0,0,0,0,0,0,0,0,0,0h0a6,6,0,0,1-.8.67c-.05.06-.15.12-.15.17h0a.25.25,0,0,1-.32.06c-.45-.2-.9-.39-1.36-.61a.4.4,0,0,1-.19-.27l0-.14a.53.53,0,0,0,0-.12v0A4.19,4.19,0,0,1,12,73a1,1,0,0,0,0-.16,13.07,13.07,0,0,1,.33-1.87v-.27c-.1-.68-.1-1.34-.15-2,0-.12,0-.23,0-.35-.06-1.26-.15-2.52-.19-3.77-.09-2.64-.31-5.26-.23-7.89a2.75,2.75,0,0,0-.22-1.13c0-.09-.07-.17-.11-.26s-.28-.47-.44-.72a1.18,1.18,0,0,1-.21-1c.16-.62.28-1.25.39-1.88.06-.29.14-.45.48-.33a1.93,1.93,0,0,0,.42,0c.56.13,1.14.14,1.7.28a.37.37,0,0,1,.15,0,8.9,8.9,0,0,1,1.59.21.33.33,0,0,1,.17,0c.64.09,1.27.16,1.91.27a.65.65,0,0,1,.41.07h.05c.75.08,1.33.14,2,.24H20v0l1,.16a6.09,6.09,0,0,0,1,.14h.08l.1,0a.32.32,0,0,1,.33.31c.17,1,.3,2,.52,3,0,.08,0,.14,0,.2s.05.33.08.49l.28,1.46a.76.76,0,0,0,0,.16v0c.1.64.22,1.21.33,1.81v.2a6.53,6.53,0,0,0-.58.7,8.26,8.26,0,0,0-.75,1.33c-.14.32-.31.66-.44,1h0a7.28,7.28,0,0,1-.44,1s0,0,0,0,0,.1-.05.13v0a14.11,14.11,0,0,1-.61,1.38c-.07.14-.15.29-.24.44s-.1.17-.1.25A5.42,5.42,0,0,1,20.12,68a3.48,3.48,0,0,1-.32,1,8.89,8.89,0,0,1-.58,1.74.68.68,0,0,0-.08.24s0,0,0,0a.93.93,0,0,1,0,.13s0,.1-.05.14,0,0,0,0l-.17,3.26.1,0c.14-.28.28-.54.41-.82s.24-.54.39-.82a1.4,1.4,0,0,0,.22-.56c.32-.53.61-1.07.94-1.55,0,0,.09-.08.13-.18.27-.43.59-1,.91-1.48.12-.19.24-.35.35-.54h0c.08-.21.19-.24.28-.34A1.07,1.07,0,0,1,23,68a1.77,1.77,0,0,1,0,.23v0a.28.28,0,0,1,0,.13v0l0,.09a.22.22,0,0,0,0,.08s0,.05,0,.08a.14.14,0,0,1,0,.07h0a15,15,0,0,0-.11,2s0,.09,0,.11h0c.09.63.19,1.26.28,1.9h0a.78.78,0,0,1,0,.19c.11.63.25,1.28.31,1.92,0,0,0,.05,0,.08a.43.43,0,0,1,0,.11,5.33,5.33,0,0,0,.72,1.3c.17.25.34.54.51.75h0a18.67,18.67,0,0,0,1.57,1.36c.08,0,.17.11.26.11h0v0c.22,0,.4.19.62.13l.12,0s.07,0,.08-.08,0-.15-.12-.18c-.86-.55-.72-1.45-.83-2.3h0a7.72,7.72,0,0,1,.54.62.38.38,0,0,0,.11.11,2.5,2.5,0,0,0,.22.24c.15.16.31.31.47.45a3,3,0,0,0,.55.39c.09,0,.17.11.25.11h0c.63.3,1.19.6,1.76.9a.75.75,0,0,1,.35.16,4.66,4.66,0,0,1,.4,2s.05.08.05.13a.33.33,0,0,1,0,.14,7.63,7.63,0,0,1,0,1.85.2.2,0,0,1,0,.17s0,0,0,0h0a7.06,7.06,0,0,1-.17,1.83c0,.6-.2,1.19-.26,1.79a.25.25,0,0,1,0,.07c0,.12-.08.25.17.22h0a24.7,24.7,0,0,0,1.67-1.84v0a.61.61,0,0,1,.25-.43,6.4,6.4,0,0,0,.67-.87c.22-.32.45-.61.67-.92a.43.43,0,0,0,0-.05.35.35,0,0,1,.13-.2l.06,0h.07a.66.66,0,0,1,.22.08l.34.21a5.36,5.36,0,0,1,1.83,1.19s.11.06.17.17a1.69,1.69,0,0,1,.58.58l.17.16,0,0c.84.71.91,1.09.3,2,0,0,0,.07-.07.07a2.56,2.56,0,0,1-.11.24,1.09,1.09,0,0,1-.08.15s0,.06,0,.08a2.58,2.58,0,0,0-.39.82,1.86,1.86,0,0,0-.06.74c.12.4.22.83.31,1.25a6.51,6.51,0,0,1,.13.77,1.16,1.16,0,0,1-.74,1.27ZM39.6,98.1c-.13.17-.15.52-.38.48h0s0,0-.06,0A2.72,2.72,0,0,1,38,98.21c-.12-.09-.09-.25-.09-.4v-2c0-.14.05-.3-.09-.39-.47-.3-.35-.81-.47-1.23,0-.17.08-.25.18-.36l1.22-1.37a.76.76,0,0,0,.19-1,2.37,2.37,0,0,1,0-2.14c.25-.57.4-1.17.62-1.85l.06.07a10.26,10.26,0,0,1,1.11,1.49,6.74,6.74,0,0,0,2.91,2.88,5.25,5.25,0,0,0,1.83.84h.09c.07,0,.18,0,.16.11s-.08.06-.14.05h-.1a12.3,12.3,0,0,0-2.17.29l-1.12.26-1,.22-.06,0h0c-.15,0-.21.11-.19.25s.08.29.3.32a6.19,6.19,0,0,0,1.14.08h.06a10,10,0,0,0,1.55-.15,10.2,10.2,0,0,1,1.74-.13,11.87,11.87,0,0,1,1.68.12c-1.89.31-3.45,1.38-5.16,2.09-.89.38-1.58,1.09-2.43,1.54-.06.07-.09.19-.15.26Zm5.48,1.39s0,0,0,0H45a.12.12,0,0,1,0-.05l-3.8-.95c.44-.35.75-.55,1.28-.35.87.35,1.67.82,2.5,1.21a.18.18,0,0,1,.13,0s0,0,0,.06v0Zm3.74,4.05a2.88,2.88,0,0,1-.82.81,6.31,6.31,0,0,1-2.12,1.07A9.81,9.81,0,0,1,47,102.84a1.36,1.36,0,0,1,1.65-.33.73.73,0,0,1,.21,1Zm4.92-5.62c-1,.78-1.93,1.57-2.84,2.43a.44.44,0,0,1-.64.06A41.88,41.88,0,0,0,45.42,98c-.73-.31-1.5-.44-2.25-.7.08-.16.24-.16.37-.2,1.61-.6,3.26-1.14,4.85-1.85a2.15,2.15,0,0,1,1.23,0,2.71,2.71,0,0,0,1.73-.2.36.36,0,0,1,.32,0l3.72,1.53-1.65,1.34Zm7.58-5.38A2.2,2.2,0,0,0,61,94.7a1.44,1.44,0,0,1-.8,2,1.06,1.06,0,0,1-.54.15.59.59,0,0,1-.39-.12c-1.65-1.15-3.61-1.53-5.47-2.18a5.19,5.19,0,0,0-.79-.25c-.31-.08-.29-.29-.25-.51s.12-.19.2-.18.2,0,.28.07a51,51,0,0,1,6.29,1.75.9.9,0,0,0,.19,0c.15,0,.18-.16.17-.36,0-.48-.09-.94-.64-1.2a12.48,12.48,0,0,0-4.29-1l-.66,0a20.64,20.64,0,0,0,3.14-1.78c.12-.1.22-.19.33-.3l1.76-2.12.21-.35.05,0,0,0a.47.47,0,0,1,.23.33c.44,1.09.87,2.18,1.32,3.28a.61.61,0,0,1,0,.65ZM83.94,47.61a.24.24,0,0,1,.06.11.1.1,0,0,1,0,.09s0,0-.06.07l0,.06h0s0,0,0,0h0v0a1.18,1.18,0,0,0,0,1.82A.39.39,0,0,1,84,50c.42.56.07,1.12,0,1.68,0,.05,0,.07-.06.09h0l-.12,0h0c-.37-.1-.74-.22-1.11-.34,0,0,0,0-.08,0s-.06,0-.09,0a1.17,1.17,0,0,1-.52-.09,1.13,1.13,0,0,0-1.29.22.15.15,0,0,1,0,.09,1.23,1.23,0,0,0,.75.41,21.06,21.06,0,0,1,3,1.53.64.64,0,0,1,.25.67,4,4,0,0,1-.08.46L84.18,56a.57.57,0,0,1-.08.34c0,.74-.5,1.29-.75,1.92a.67.67,0,0,0-.09.19,11.54,11.54,0,0,1-.57,1.31.24.24,0,0,1,0,.1v0s0,0,0,0,0,0,0,0a1.11,1.11,0,0,1-.25.58,8.24,8.24,0,0,1-.83,1.9.3.3,0,0,0-.07.16c-.28.63-.56,1.4-.84,2.09-.06.26-.11.51-.18.75l0,.07s0,0,0,0,0,0,0,.06a1.88,1.88,0,0,1-.16.84c0,.18-.09.37-.15.54a.31.31,0,0,1,0,.08l-.89,4c-.24,1.1-.33,2.22-.51,3.32s-.21,2.11-.47,3.12a10.46,10.46,0,0,1-.94,2.11c-.32.65-.52,1.34-.9,2l0,.07a.69.69,0,0,0,0,.13s0,.06,0,.08l0,.15a.76.76,0,0,0,0,.15.47.47,0,0,1,0,.16v.15c0,.11,0,.22,0,.33a29.67,29.67,0,0,0-.18,3.4.33.33,0,0,1-.25.4l-.25.1c-.17.06-.34.14-.5.21l-.27.11a2.4,2.4,0,0,1-.43.14h0l-.58.25-.42.17a2.65,2.65,0,0,1-.93.4l-.15.1-2,.89s-.06,0-.09,0a8.71,8.71,0,0,0-1.09.49l-1.17.5c-.61.27-1.22.52-1.84.8,0,0-.05,0-.07,0-.56.22-1.14.52-1.67.76a7,7,0,0,1-.78.34c-.49.19-.59.17-.7-.33-.32-.23-.35-.62-.47-.95s-.21-.66-.31-1c0-.11-.08-.09-.08-.16a1.81,1.81,0,0,1-.16-.42V89s0-.06,0-.09l0-.07h0c-.15-.45-.3-.88-.41-1.32a5.47,5.47,0,0,1-.35-.89.76.76,0,0,1,0-.3l0-.15s0,0,0-.08c.09-.21.22-.41.33-.61s.14-.34.21-.51.14-.3.22-.5.27-.69.48-1.06a1.21,1.21,0,0,1,.08-.25c.19-.65.41-1.3.66-1.93,0,0,0,0,0-.07.07-.38.44-.52.64-.74h0c.1,0,.16-.09.21-.09a.8.8,0,0,1,.19-.21c.12-.14.22-.29.33-.44s.11-.15.15-.22c.2-.3.38-.6.6-.9.07-.09.14-.24.25-.24h.06c.17,0,.11.24.1.37a3.62,3.62,0,0,0,0,1.43c0,.38.11.74.14,1.12,0,0,0,.11,0,.17a2.66,2.66,0,0,1,.16.83c.08.36.15.71.26,1.07a14.73,14.73,0,0,1,.77,2h0c.36.53.72,1.14,1.08,1.72a3.22,3.22,0,0,0,.33.39h0v.09c.1,0,.15.23.32,0,0-.11-.06-.11-.09-.11a2.13,2.13,0,0,1-.14-.35c0-.07,0-.15-.06-.21a1,1,0,0,1,0-.23.38.38,0,0,1,0-.1,1.55,1.55,0,0,0,0-.21l0-.33c0-.11,0-.22,0-.33a.14.14,0,0,1,0-.11.5.5,0,0,0,0-.13c0-.12,0-.26,0-.38l-.09-.76c0-.13-.06-.26-.06-.38a16,16,0,0,1,.15-4.15h.06c.13-.63.25-1.36.39-2h.1a12.65,12.65,0,0,0,.33,3.42.19.19,0,0,1,0,.08c.16.43.33.86.46,1.31l.1.27a1,1,0,0,0,.12.25,1.77,1.77,0,0,0,.12.17c0,.05.1.1.1.15s.15.18.25.27.11.15.17.23c.22.21.46.41.73.69,0-.21,0-.41-.07-.62s-.06-.38-.08-.59c0,0,0,0,0,0a3.88,3.88,0,0,0,0-.48l-.18-1.45a.53.53,0,0,1,0-.12,1,1,0,0,1,0-.11,12.53,12.53,0,0,1-.09-1.83v-.07a.83.83,0,0,1,0-.15,4.89,4.89,0,0,1,0-1.48c0-.14,0-.3,0-.45s0-.05,0-.09A7,7,0,0,1,70.55,75a.56.56,0,0,1,0-.07c0-.32.11-.7.16-1l.15-1.06c0-.15.06-.22.14-.22a.32.32,0,0,1,.18.07l.22.14a2.37,2.37,0,0,1,.33.22,1.72,1.72,0,0,1,.31.24l0,0,.07,0h0a5.58,5.58,0,0,1,1.66,1.58.91.91,0,0,1,.23.21,1.36,1.36,0,0,1,.25.46A4.64,4.64,0,0,1,75.06,77a1.21,1.21,0,0,1,0,.14s0,0,0,.13a1.44,1.44,0,0,1,.19.37l.15.37.08.18.08.1a.26.26,0,0,0,.18.11c.11-.39-.16-.76-.06-1.13h0c0-.11,0-.11,0-.16a7.28,7.28,0,0,0-.47-2,1.31,1.31,0,0,1,0-.17,9.5,9.5,0,0,0-.75-1.83.45.45,0,0,1-.16-.28,1,1,0,0,1-.24-.36L74,72.18v.07s0,0,0,0h0A10.49,10.49,0,0,0,73,71l0,0s-.08,0-.12-.15a3.39,3.39,0,0,1-.75-.65s-.07,0-.09-.07,0,0-.11-.08c-.53-.36-.92-.8-1.38-1.11-.09-.11-.19,0-.24-.22a34.71,34.71,0,0,1,4.07.16v0h0a7.64,7.64,0,0,1,1.92.5s.05,0,.08,0v0a5.77,5.77,0,0,1,1.23.47c.08,0,.18.19.28.06s0-.2-.1-.28-.31-.45-.48-.68c0,0-.08-.1-.08-.15-.31-.31-.56-.66-.83-1l-.27-.29a5,5,0,0,1-.92-.75c-.05,0-.11-.1-.16-.1s-.28-.15-.42-.24l-.43-.27A1.19,1.19,0,0,0,74,66c-.65-.25-1.3-.47-1.94-.71l-.06,0h-.08a.59.59,0,0,1-.32-.13.36.36,0,0,1-.11-.16s0,0,0-.05a.65.65,0,0,1,0-.28,4,4,0,0,0-.06-1,1.51,1.51,0,0,0-.05-.28l-.06-.26-.06-.27c0-.13-.07-.27-.11-.4s0,0,0,0a16.71,16.71,0,0,0-.55-1.92c0-.09,0-.15-.08-.26a1.61,1.61,0,0,1-.25-.74,2,2,0,0,1,0-.24s0-.08,0-.11a2.09,2.09,0,0,1,.08-.36l.15-.48s0-.07,0-.07h0a17.13,17.13,0,0,1,.65-2.06s0,0,0,0l0,0,0,0a1.17,1.17,0,0,0,.23-.81,1.49,1.49,0,0,0-.12-.46c-.07-.18-.17-.37-.26-.56a.13.13,0,0,0-.07,0l0,0A5.3,5.3,0,0,1,70,52.65l-.08-.17s0,0,0-.07v0l0-.08h0s0,0,0,0a1.8,1.8,0,0,1,.05-.19L70,52l.08-.09,0,0c.29-.41.55-.85.87-1.25a1.14,1.14,0,0,0,.22-1.11c-.18-.6-.16-.61.44-.83.11-.05,1.39-.53,1.91-.69a1.84,1.84,0,0,1,.33-.13l.08,0,.24-.1,2-.74h.07a15.32,15.32,0,0,1,2-.74,1.6,1.6,0,0,1,.26-.08c.11-.09.43-.16.54-.25a14.49,14.49,0,0,1,1.42-.51c.7-.54,1.27-.32,1.74.34l.19.14c.1.08.13.18.24.29.43.5.91,1,1.36,1.47Zm-14.87.58-.17.05c-.16,0-.24-.06-.35-.25-1-1.74-1.94-3.46-2.92-5.19-.12-.21-.17-.33.15-.42L84.52,36.9a1.51,1.51,0,0,1,.26-.07v0h0l-.27,3.26-.19,2.35a.57.57,0,0,1-.42.58q-7.43,2.55-14.84,5.15ZM38.31,71.94c1.75.15,3.48.5,5.23.74a2.39,2.39,0,0,1,.69.16,2.25,2.25,0,0,1,1,1.28,8.43,8.43,0,0,1,.46,2.49A1.84,1.84,0,0,1,45,78.28a2.41,2.41,0,0,0-.87,1.23,2,2,0,0,1,1.7.69,7.42,7.42,0,0,0,1,1,1.68,1.68,0,0,0,2.59-.36c.25-.41.5-.83.77-1.23a3.08,3.08,0,0,1,1.42-1.41c.41-.14.23-.34.1-.51a.92.92,0,0,0-1.24-.08,6.93,6.93,0,0,0-1.68,1.65,2.63,2.63,0,0,1-.5.5.47.47,0,0,1-.7,0,10.74,10.74,0,0,0-.78-.74.43.43,0,0,1-.14-.63,3.23,3.23,0,0,0,.36-1.82,6.29,6.29,0,0,0-1.32-3.82c-.11-.12-.11-.18,0-.28a4.14,4.14,0,0,0,1.8-3.1c0-.32,0-.59-.3-.68s-.43.18-.54.39c-.27.45-.61.87-.91,1.29A1.81,1.81,0,0,1,44,71c-2.52-.4-5-.65-7.58-.8a.47.47,0,0,0-.35,0,6.87,6.87,0,0,0-2.13,2.06s.06,0,.08,0l.25,0A12,12,0,0,1,38.31,72Zm23.5,1c-.62.3-1.23.63-1.83,1a1.48,1.48,0,0,1-.5.21,17.68,17.68,0,0,1-3.18.33,3.08,3.08,0,0,1-1.62-.57A1.28,1.28,0,0,1,54,73a.86.86,0,0,1,.45,0,9.69,9.69,0,0,0,1.69.24,15,15,0,0,0,4-.94l1.25-.45c.19-.07.25-.13.07-.31a.63.63,0,0,0-.64-.15,24.78,24.78,0,0,1-8.24-.2c-.79-.15-1.64-.2-2-1.19a6.71,6.71,0,0,1-.22-.8,1.63,1.63,0,0,0-.41-.75.38.38,0,0,0-.4-.17c-.17,0-.16.22-.16.35A11.88,11.88,0,0,0,49.52,70,2.73,2.73,0,0,0,50,71.34a3.71,3.71,0,0,0,2.24,1.47c.69.16.69.17.75.88a.87.87,0,0,0,.36.75,3.73,3.73,0,0,0,1.6.64,1.89,1.89,0,0,1,1.06.3,2.63,2.63,0,0,0,1.41.43,10.61,10.61,0,0,1,1.12.11.82.82,0,0,0,.71-.22c1.05-.87,2.08-1.75,3.07-2.72a.41.41,0,0,0-.52-.06Zm-8.68,8.54a.22.22,0,0,0-.34-.1,6.94,6.94,0,0,1-2.69.6c-.39.06-.88-.06-1.16.22-.7.69-1.3.41-1.91-.08a.29.29,0,0,0-.11-.06,2.44,2.44,0,0,0-2.75,0,1.44,1.44,0,0,1-1.17.3.83.83,0,0,0-.84.17,2.32,2.32,0,0,1-.44.31c-.41.27-.41.32,0,.63a.76.76,0,0,0,.29.13,3.1,3.1,0,0,0,2.47-.35,2,2,0,0,1,2.29.14,2,2,0,0,0,2.11.21,12.64,12.64,0,0,1,2.88-1c.15,0,.29-.07.43,0,.42.39.83.11,1.23,0a.3.3,0,0,0,.17-.34c0-.35-.29-.53-.44-.8Zm-3.84,2.76a10.57,10.57,0,0,0-3.1.54c-.81.27-1.72.46-2.14,1.4a12.74,12.74,0,0,0-.39,1.68A3,3,0,0,0,44,89.09c.08.11.11.27.29.26s.25-.17.31-.29a9.71,9.71,0,0,0,.35-1.28,2.16,2.16,0,0,1,1.24-1.55c.75-.32,1.51-.61,2.27-.91a.87.87,0,0,1,.45,0,6.43,6.43,0,0,1,2.76.65.37.37,0,0,0,.28,0c.31-.07.34-.18.15-.43a3.17,3.17,0,0,0-2.8-1.32Zm-7.36-9.61c.64-.06,1.27-.14,1.9-.23.16,0,.43,0,.47-.16s-.2-.34-.34-.47a.69.69,0,0,0-.32-.12,3.48,3.48,0,0,0-1.92-.07,9,9,0,0,1-3.91,0c-.35-.08-.72-.08-1.14-.14a9.16,9.16,0,0,0-1.56.47c-.36.17-.38.37-.06.61a.6.6,0,0,0,.61.14,2,2,0,0,1,2.18.42,2.25,2.25,0,0,0,2.3.38,8.24,8.24,0,0,0,1.29-.66,1.5,1.5,0,0,1,.5-.18ZM30.62,75.81a1.43,1.43,0,0,0-.56-1.4,1.55,1.55,0,0,1-.61-.89,3.34,3.34,0,0,0-.6-1.36c-.1-.1-.18-.34-.37-.26a.7.7,0,0,0-.5.51,2.18,2.18,0,0,0,1.23,2.43,2.11,2.11,0,0,1,1,1c.07.15.08.46.31.41s.05-.34.1-.46Z"/><path class="cls-8" d="M10.76,53s0,0,0-.06l-.07.18a.61.61,0,0,0,0,.38,1,1,0,0,0,.09-.5"/><path class="cls-9" d="M68.1,74.82A7.37,7.37,0,0,0,69,73.17a1.73,1.73,0,0,1,.1-.24,3.15,3.15,0,0,0,.32-1.07v0c0-.11,0-.27-.07-.31a1.87,1.87,0,0,0-.62-.1l-.24,0-.12,0-.06,0,0,0c-.07.09.08.26,0,.39s0,.25,0,.37-.09.24-.14.37-.16.35-.24.52a7.88,7.88,0,0,1-1.29,1.66,1.38,1.38,0,0,1,0-1.16.54.54,0,0,1,0-.11c.11-.24.25-.46.37-.68,0-.07.11-.14.15-.21s0,0,0,0a.14.14,0,0,0,0-.11,1.94,1.94,0,0,0-.65-1,1.91,1.91,0,0,0-.3-.22.91.91,0,0,0-.26-.11l-.41,0A4.86,4.86,0,0,1,64.45,71l-.1,0c-.56-.18-1.12-.38-1.67-.61l-.54-.25A13.49,13.49,0,0,1,60.08,69l-1.45-1-1-.68c-.48-.35-.95-.7-1.4-1.07a.61.61,0,0,0-.1-.07C56.1,66.07,56,66,56,66l-.2-.15a1.38,1.38,0,0,1-.27-.27l-.12-.17-.13-.17a7.62,7.62,0,0,1-1.66-2.53,9.43,9.43,0,0,1-1.22,2.13,7.27,7.27,0,0,1-.61.71,7,7,0,0,1-3.22,1.93,9.08,9.08,0,0,1-2.63.35l.73-.6.22-.2A15.8,15.8,0,0,0,49,65l.1-.06a.24.24,0,0,0,.08-.15v0h0a.41.41,0,0,0-.24.15c-.62.35-1.25.68-1.89,1l-.27.15c-.16.08-.32.17-.49.24s-.54.25-.81.37a15.17,15.17,0,0,1-4.15,1.06c-.79.09-1.58.17-2.38.24s-1.58.14-2.37.19L35,68.29h-.7l-.46,0a3.78,3.78,0,0,0-.47.06l-.23.06a18.58,18.58,0,0,0-3.78,1.38q-.5.26-1,.54c-.21.13-.42.27-.61.41l-.3.22a1.9,1.9,0,0,0-.56.63l-.06.12a.08.08,0,0,1,0,.07l0,.14a1.62,1.62,0,0,0,0,.22A2.68,2.68,0,0,0,27,73a21,21,0,0,0,2,3.76,2.44,2.44,0,0,0,.39.46l.58.37a2.75,2.75,0,0,0,1.11.22.9.9,0,0,1,1,.65,7,7,0,0,0,2.73,3.27l.27.16.26.16c.38.22.72.45,1.07.69l.34.25a12,12,0,0,1,1.27,1.09,4,4,0,0,1,.3.29c.39.4.77.8,1.14,1.22a4,4,0,0,0,.28.3l.55.63a11.68,11.68,0,0,1,1.21,1.61,1.49,1.49,0,0,1,.14.24,5.22,5.22,0,0,1,.41.86,2.83,2.83,0,0,0,1,1.22c.22.17.47.32.71.47l.57.31c.29.14.54.31.81.45a3.48,3.48,0,0,0,.63.26L46,92l.09,0a10,10,0,0,0,2.57.08l.77-.11c.25,0,.48-.08.73-.12h.08l.72-.13c.6-.13,1.2-.28,1.79-.46.19,0,.38-.12.57-.18l.17,0,.54-.2.19-.07.24-.1.28-.13c.25-.11.5-.24.75-.37s.62-.35.92-.54.31-.21.45-.31a7.49,7.49,0,0,0,1.12-1c.15-.17.3-.34.45-.53a16.48,16.48,0,0,0,1.79-2.88c.09-.18.18-.37.28-.55s.26-.56.39-.84L61,83.3a12.16,12.16,0,0,0,.38-1.5l-.46.18c-.22.09-.44.19-.65.26a2.45,2.45,0,0,1-.65.15H59.4a.47.47,0,0,1-.52-.34c-.08-.25,0-.34.2-.41l.14,0,.09,0,.14-.06.16-.06a9.32,9.32,0,0,0,2.06-1,7.94,7.94,0,0,0,1.11-.9c.13-.12.27-.25.4-.39a6.73,6.73,0,0,0,1.39-2.11l0-.08c.08-.17.19-.31.26-.49a.37.37,0,0,1,.38-.25c.17,0,.34,0,.51,0H66a2.69,2.69,0,0,0,2.11-1.38ZM30.52,76.27c-.23,0-.24-.25-.32-.41a2,2,0,0,0-1-1A2.12,2.12,0,0,1,28,72.41a.72.72,0,0,1,.49-.51c.2-.07.26.16.37.27a3.21,3.21,0,0,1,.59,1.35,1.54,1.54,0,0,0,.61.89,1.43,1.43,0,0,1,.57,1.41c-.06.11.13.4-.1.45Zm3.45-4-.09,0A6.87,6.87,0,0,1,36,70.19c.11-.09.24,0,.36,0,2.53.16,5.05.42,7.57.8a1.79,1.79,0,0,0,1.84-.68A14.91,14.91,0,0,0,46.69,69c.12-.21.3-.49.55-.39s.34.36.3.69a4.15,4.15,0,0,1-1.8,3.09c-.15.1-.15.16,0,.28A6.29,6.29,0,0,1,47,76.46a3.45,3.45,0,0,1-.36,1.81.45.45,0,0,0,.14.64c.27.23.52.49.78.74a.48.48,0,0,0,.7,0,3.93,3.93,0,0,0,.5-.5,6.55,6.55,0,0,1,1.67-1.65.92.92,0,0,1,1.24.08c.14.17.31.38-.09.51a3.1,3.1,0,0,0-1.43,1.41c-.28.4-.52.83-.78,1.24a1.66,1.66,0,0,1-2.57.36,8.17,8.17,0,0,1-1-1,1.93,1.93,0,0,0-1.7-.68A2.53,2.53,0,0,1,45,78.26a1.83,1.83,0,0,0,.64-1.67,8.7,8.7,0,0,0-.46-2.49,2.18,2.18,0,0,0-1-1.28,1.88,1.88,0,0,0-.69-.16c-1.74-.24-3.47-.59-5.23-.74a13.39,13.39,0,0,0-4.09.3.43.43,0,0,1-.21.06Zm6.17,3.19a2.3,2.3,0,0,1-2.3-.39,2.07,2.07,0,0,0-2.18-.42.6.6,0,0,1-.61-.14c-.32-.25-.3-.45.06-.61a8.48,8.48,0,0,1,1.55-.47,8.66,8.66,0,0,1,1.14.14,9.42,9.42,0,0,0,3.92,0,3.49,3.49,0,0,1,1.92.06,1.11,1.11,0,0,1,.31.12c.15.14.39.26.35.47s-.31.14-.48.16c-.63.09-1.26.17-1.89.23a1.44,1.44,0,0,0-.5.19,7.42,7.42,0,0,1-1.29.65ZM51.94,86a.31.31,0,0,1-.27,0,6.17,6.17,0,0,0-2.76-.64,1,1,0,0,0-.45,0c-.76.3-1.52.58-2.27.91A2.14,2.14,0,0,0,45,87.79a8.42,8.42,0,0,1-.36,1.28c-.06.14-.11.28-.3.29s-.22-.15-.29-.26a3,3,0,0,1-.33-1.24,14.5,14.5,0,0,1,.38-1.68c.43-.94,1.34-1.13,2.15-1.41a10.51,10.51,0,0,1,3.09-.54,3.22,3.22,0,0,1,2.82,1.31c.18.25.15.36-.17.43Zm1.44-3.37c-.4.17-.8.44-1.22,0-.13-.11-.28-.07-.44,0a13.47,13.47,0,0,0-2.88.94,2,2,0,0,1-2.11-.2,1.94,1.94,0,0,0-2.29-.13,3.1,3.1,0,0,1-2.47.34.81.81,0,0,1-.3-.13c-.37-.32-.37-.36,0-.63a2.71,2.71,0,0,0,.45-.3.8.8,0,0,1,.84-.17,1.47,1.47,0,0,0,1.17-.3,2.42,2.42,0,0,1,2.75,0l.11.06c.61.5,1.19.77,1.91.09.28-.28.76-.17,1.15-.22a7.29,7.29,0,0,0,2.7-.61.22.22,0,0,1,.35.1c.14.26.39.46.41.79a.28.28,0,0,1-.15.35Zm5.89-6.93a.76.76,0,0,1-.71.22c-.37-.06-.73-.07-1.12-.1a2.57,2.57,0,0,1-1.4-.43,2,2,0,0,0-1.07-.3,3.71,3.71,0,0,1-1.59-.64.83.83,0,0,1-.37-.75c-.07-.71-.07-.72-.75-.88A3.71,3.71,0,0,1,50,71.32a3,3,0,0,1-.5-1.35c-.05-.44-.07-.89-.08-1.33,0-.13,0-.31.15-.35a.37.37,0,0,1,.41.17,1.68,1.68,0,0,1,.41.75,7.27,7.27,0,0,0,.22.8c.31,1,1.17,1,1.95,1.19a24.78,24.78,0,0,0,8.24.2c.23,0,.45-.08.64.14s.12.24-.07.31l-1.25.46a15.33,15.33,0,0,1-4,.93A9.58,9.58,0,0,1,54.5,73,1,1,0,0,0,54,73a1.32,1.32,0,0,0,.65.89,3,3,0,0,0,1.62.57,17,17,0,0,0,3.18-.33,1.39,1.39,0,0,0,.5-.22c.59-.36,1.2-.67,1.83-1a.44.44,0,0,1,.53,0,35.74,35.74,0,0,1-3.08,2.74ZM25.66,18.13c-.83.38-1.42,1.11-2.2,1.54-.22.12-.11.24,0,.36l2.38,2.73A2,2,0,0,1,26,23l.2-.08,1.14-.7c.12-.07.11-.17.07-.28-.45-1.22-.81-2.48-1.32-3.67-.12-.23-.2-.22-.41-.12Zm-3.36.58c.09.11.17.19.32.11a16,16,0,0,0,2.16-1.16C26.4,16.37,28,15,29.51,13.6c.24-.22.41-.44.36-.71s.08-.47-.14-.59-.29.08-.43.16-.31.19-.47.28a49.16,49.16,0,0,1-4.57,2.34c-1.11.44-2.2.9-3.34,1.3-.12,0-.38,0-.17.31l1.55,2ZM22.44,25a35.8,35.8,0,0,1-3.7-2.57c-.1.44-.19.78-.26,1.13a.29.29,0,0,1-.25.25c-.3.05-.43-.22-.59-.4a.53.53,0,0,1-.2-.56c.27-.57.42-1.19.65-1.77s.25-.6.75-.22l.13.1a14,14,0,0,0,3.8,2.85,1.56,1.56,0,0,0,1.95-.09l.14-.08a.17.17,0,0,0,.08-.25,2.24,2.24,0,0,0-.43-.84c-.77-.66-1.49-1.37-2.21-2.08a17.21,17.21,0,0,1-2.84-3.25,6,6,0,0,0-.8-1,.91.91,0,0,0-1.47.21c-.59,1.1-1.37,2.08-2,3.17s-1.51,2.28-2.11,3.53a.75.75,0,0,0,0,.7A13.91,13.91,0,0,1,13.92,26c.05.17.08.31-.15.4s-.27,0-.35-.18c-.44-.72-.89-1.43-1.3-2.18A66.25,66.25,0,0,0,8,16.65c-.08-.11-.09-.38-.33-.27a.45.45,0,0,0-.29.5c.17.9.26,1.82.5,2.7,1,3.79,2.26,7.5,3.48,11.24.1.33.2.28.45.14q4.7-2.66,9.42-5.3C21.61,25.45,22,25.21,22.44,25ZM14.61,38.3a8.53,8.53,0,0,0-1.32,3.5c-.17.3-.14.49.25.53s.48.11.73.16q2.91.78,5.85,1.46a.64.64,0,0,0,.5.1c.08,0,.07-.09.07-.16a.22.22,0,0,1,0-.09l1.21-4c.06-.19.08-.42.26-.55A2.07,2.07,0,0,0,23,37.54c0-.27.11-.52.13-.79a.73.73,0,0,1,.47-.69,11.25,11.25,0,0,0,3.77-2.82,3.39,3.39,0,0,0,.65-.9,36.19,36.19,0,0,1,2.75-4.89,24.29,24.29,0,0,1,3.88-4.81,2.51,2.51,0,0,0,.71-1.28.94.94,0,0,0-.35-1,.8.8,0,0,0-1,0,27.32,27.32,0,0,1-5.23,2.79,3.67,3.67,0,0,0-2.16,1.62s-.08.06-.13.09a5.49,5.49,0,0,1-1.9.72c-.19.05-.38,0-.58.1L12.61,32.77c-.23.13-.27.24-.16.48a47.82,47.82,0,0,0,2.19,4.35.57.57,0,0,1,0,.68Zm6.07,5.6s0,0,0,.06A.08.08,0,0,1,20.68,43.9Zm50.24-4.78c2.12-.66,4.25-1.29,6.39-1.92.33-.09.39-.22.26-.54-.92-2.42-1.85-4.84-2.95-7.2a1,1,0,0,1-.05-.92A6.5,6.5,0,0,0,75.11,25c-.08-.61,0-1.24,0-1.86A39.54,39.54,0,0,0,74,18.26a32,32,0,0,0-2.13-5.18,38.56,38.56,0,0,0-1.92-3.35c-.38-.66-.81-1.27-1.16-1.93a3,3,0,0,0-1.38-1.46c-.16-.07-.4-.23-.53-.06a.79.79,0,0,0-.21.8c.23.56.48,1.12.72,1.68a32.63,32.63,0,0,1,1.84,4.73,11.77,11.77,0,0,1,.37,1.95c0,.25,0,.52-.25.61s-.3-.2-.42-.33c-.48-.52-1.1-1-1.84-.74a1.19,1.19,0,0,1-.7.07c-.15,0-.36-.08-.4-.25s.13-.29.26-.38a2.78,2.78,0,0,0,.38-.25c.16-.15.28-.35.11-.55a8.7,8.7,0,0,0-1.24-1.45c-1-.8-2.07-1.59-3.16-2.29l-.47-.3c-2-1.17-4-2.24-6-3.24A1.57,1.57,0,0,0,55,6.12c-.22,0-.44,0-.54.24a.61.61,0,0,0,.11.66,3,3,0,0,0,.76.7,22.24,22.24,0,0,1,2.63,1.53c1.58,1.22,3.15,2.45,4.69,3.72A17.13,17.13,0,0,1,64,14.29l.79.82a.76.76,0,0,1,.19.32v.14a.44.44,0,0,1-.14.24c-.25.25-.51.12-.75,0a1.28,1.28,0,0,1-.26-.26l-.13-.13c-.21-.21-.4-.42-.62-.62a1.93,1.93,0,0,0-.28-.22L59.26,11.9,55.72,9.23a12.85,12.85,0,0,0-2.13-1.29.44.44,0,0,0-.6.11.7.7,0,0,0-.11.83,3.86,3.86,0,0,0,1,1.23,15.9,15.9,0,0,1,1.54,1.41C57.61,14,59.87,16.4,62,18.93a1.22,1.22,0,0,1,.27.59c.06.41-.15.6-.55.47a2.39,2.39,0,0,1-.22-.12,85.22,85.22,0,0,1-7.8-4.78,13.26,13.26,0,0,0-2.33-1.29c-.25-.11-.53-.25-.74.07a.76.76,0,0,0,.19.87c.95.72,1.83,1.53,2.73,2.31,2,1.76,4.15,3.41,5.65,5.68a1.21,1.21,0,0,0,1.36.24,5.12,5.12,0,0,1,2.94-.87h0l.23,0a.31.31,0,0,1,.19.06.15.15,0,0,1,.06.09c.12.26-.15.32-.3.42l-2.87,1.86a.83.83,0,0,1-.73.12,5.3,5.3,0,0,0-1.37-.28,39.16,39.16,0,0,0-5.92.57,3.93,3.93,0,0,0-1.29.35.6.6,0,0,0-.28.64c0,.2.07.42.37.47,1.23.24,2.44.5,3.67.75a8.47,8.47,0,0,0,1.33.27c1.4.87,2.78,1.78,4.12,2.76a6.24,6.24,0,0,0,2.69,1.2,13.18,13.18,0,0,1,1.38.33,4.87,4.87,0,0,1,1.77.5,4.66,4.66,0,0,1,1,1.59c.16.35.37.52.76.42s.46.08.57.38c.49,1.42,1,2.82,1.5,4.23.14.31.24.39.55.29Z"/></g></svg>